<svg width="13" height="13" viewBox="0 0 13 13" fill="none" xmlns="http://www.w3.org/2000/svg">
<path fill-rule="evenodd" clip-rule="evenodd" d="M4.2325 1.033C4.819 1.006 5.006 1 6.5 1C7.994 1 8.181 1.0065 8.767 1.033C9.353 1.0595 9.753 1.153 10.103 1.2885C10.4695 1.427 10.802 1.6435 11.077 1.9235C11.357 2.198 11.573 2.53 11.711 2.897C11.847 3.247 11.94 3.647 11.967 4.232C11.994 4.8195 12 5.0065 12 6.5C12 7.994 11.9935 8.181 11.967 8.7675C11.9405 9.3525 11.847 9.7525 11.711 10.1025C11.573 10.4695 11.3566 10.8021 11.077 11.077C10.802 11.357 10.4695 11.573 10.103 11.711C9.753 11.847 9.353 11.94 8.768 11.967C8.181 11.994 7.994 12 6.5 12C5.006 12 4.819 11.9935 4.2325 11.967C3.6475 11.9405 3.2475 11.847 2.8975 11.711C2.53046 11.573 2.19791 11.3566 1.923 11.077C1.64319 10.8023 1.42666 10.4699 1.2885 10.103C1.153 9.753 1.06 9.353 1.033 8.768C1.006 8.1805 1 7.9935 1 6.5C1 5.006 1.0065 4.819 1.033 4.233C1.0595 3.647 1.153 3.247 1.2885 2.897C1.42686 2.53004 1.64356 2.19766 1.9235 1.923C2.19802 1.64325 2.53024 1.42672 2.897 1.2885C3.247 1.153 3.647 1.06 4.232 1.033H4.2325ZM8.7225 2.023C8.1425 1.9965 7.9685 1.991 6.5 1.991C5.0315 1.991 4.8575 1.9965 4.2775 2.023C3.741 2.0475 3.45 2.137 3.256 2.2125C2.9995 2.3125 2.816 2.431 2.6235 2.6235C2.44102 2.80103 2.30059 3.01714 2.2125 3.256C2.137 3.45 2.0475 3.741 2.023 4.2775C1.9965 4.8575 1.991 5.0315 1.991 6.5C1.991 7.9685 1.9965 8.1425 2.023 8.7225C2.0475 9.259 2.137 9.55 2.2125 9.744C2.3005 9.9825 2.441 10.199 2.6235 10.3765C2.801 10.559 3.0175 10.6995 3.256 10.7875C3.45 10.863 3.741 10.9525 4.2775 10.977C4.8575 11.0035 5.031 11.009 6.5 11.009C7.969 11.009 8.1425 11.0035 8.7225 10.977C9.259 10.9525 9.55 10.863 9.744 10.7875C10.0005 10.6875 10.184 10.569 10.3765 10.3765C10.559 10.199 10.6995 9.9825 10.7875 9.744C10.863 9.55 10.9525 9.259 10.977 8.7225C11.0035 8.1425 11.009 7.9685 11.009 6.5C11.009 5.0315 11.0035 4.8575 10.977 4.2775C10.9525 3.741 10.863 3.45 10.7875 3.256C10.6875 2.9995 10.569 2.816 10.3765 2.6235C10.199 2.44104 9.98285 2.30061 9.744 2.2125C9.55 2.137 9.259 2.0475 8.7225 2.023ZM5.7975 8.1955C6.18983 8.35882 6.62669 8.38086 7.03346 8.25786C7.44024 8.13486 7.7917 7.87446 8.0278 7.52112C8.26391 7.16778 8.37003 6.74343 8.32802 6.32055C8.28602 5.89767 8.0985 5.50249 7.7975 5.2025C7.60562 5.01074 7.37361 4.86391 7.11817 4.77257C6.86273 4.68124 6.59021 4.64768 6.32025 4.67431C6.05028 4.70094 5.78958 4.78709 5.5569 4.92656C5.32423 5.06604 5.12537 5.25537 4.97465 5.48093C4.82393 5.70648 4.72509 5.96264 4.68526 6.23098C4.64542 6.49932 4.66558 6.77315 4.74427 7.03276C4.82296 7.29237 4.95824 7.5313 5.14036 7.73236C5.32248 7.93342 5.54691 8.09159 5.7975 8.1955ZM4.501 4.501C4.76351 4.23849 5.07516 4.03025 5.41815 3.88818C5.76114 3.74611 6.12875 3.67299 6.5 3.67299C6.87125 3.67299 7.23886 3.74611 7.58185 3.88818C7.92484 4.03025 8.23649 4.23849 8.499 4.501C8.76151 4.76351 8.96975 5.07516 9.11182 5.41815C9.25389 5.76114 9.32701 6.12875 9.32701 6.5C9.32701 6.87125 9.25389 7.23886 9.11182 7.58185C8.96975 7.92484 8.76151 8.23649 8.499 8.499C7.96883 9.02917 7.24977 9.32701 6.5 9.32701C5.75023 9.32701 5.03117 9.02917 4.501 8.499C3.97083 7.96883 3.67299 7.24977 3.67299 6.5C3.67299 5.75023 3.97083 5.03117 4.501 4.501ZM9.954 4.094C10.0191 4.03263 10.0711 3.95884 10.1072 3.87699C10.1432 3.79513 10.1624 3.70688 10.1637 3.61746C10.165 3.52805 10.1484 3.43927 10.1147 3.3564C10.0811 3.27354 10.0312 3.19826 9.96798 3.13502C9.90474 3.07178 9.82946 3.02188 9.74659 2.98826C9.66373 2.95464 9.57495 2.93799 9.48553 2.93929C9.39611 2.94059 9.30787 2.95983 9.22601 2.99585C9.14416 3.03187 9.07036 3.08395 9.009 3.149C8.88965 3.27551 8.82432 3.44356 8.82685 3.61746C8.82939 3.79137 8.8996 3.95744 9.02258 4.08042C9.14556 4.2034 9.31163 4.27361 9.48553 4.27615C9.65944 4.27868 9.82749 4.21334 9.954 4.094Z" fill="white"/>
</svg>
