<svg width="90" height="35" viewBox="0 0 90 35" fill="none" xmlns="http://www.w3.org/2000/svg">
<path d="M3.46 3.8H0.3V0.999999H9.88V3.8H6.7V15H3.46V3.8ZM11.5158 0.999999H14.7958V15H11.5158V0.999999ZM32.3328 15H29.1728V6.32L26.1528 15H23.7528L20.6328 6.32V15H17.4728V0.999999H21.2128L24.9528 10.74L28.6528 0.999999H32.3328V15ZM41.7319 15.36C40.5719 15.36 39.5319 15.16 38.6119 14.76C37.6919 14.3467 36.9119 13.8 36.2719 13.12C35.6319 12.44 35.1452 11.66 34.8119 10.78C34.4785 9.88667 34.3119 8.96 34.3119 8C34.3119 7.04 34.4785 6.12 34.8119 5.24C35.1452 4.34667 35.6319 3.56 36.2719 2.88C36.9119 2.2 37.6919 1.66 38.6119 1.26C39.5319 0.846666 40.5719 0.639999 41.7319 0.639999C42.8919 0.639999 43.9252 0.846666 44.8319 1.26C45.7519 1.66 46.5319 2.2 47.1719 2.88C47.8119 3.56 48.2985 4.34667 48.6319 5.24C48.9652 6.12 49.1319 7.04 49.1319 8C49.1319 8.96 48.9652 9.88667 48.6319 10.78C48.2985 11.66 47.8119 12.44 47.1719 13.12C46.5319 13.8 45.7519 14.3467 44.8319 14.76C43.9252 15.16 42.8919 15.36 41.7319 15.36ZM41.7319 12.44C42.3719 12.44 42.9452 12.32 43.4519 12.08C43.9585 11.8267 44.3852 11.4933 44.7319 11.08C45.0919 10.6667 45.3652 10.1933 45.5519 9.66C45.7385 9.12667 45.8319 8.57333 45.8319 8C45.8319 7.42667 45.7385 6.87333 45.5519 6.34C45.3652 5.80667 45.0919 5.33333 44.7319 4.92C44.3852 4.50667 43.9585 4.18 43.4519 3.94C42.9452 3.68667 42.3719 3.56 41.7319 3.56C41.0919 3.56 40.5185 3.68667 40.0119 3.94C39.5052 4.18 39.0719 4.50667 38.7119 4.92C38.3652 5.33333 38.0985 5.80667 37.9119 6.34C37.7252 6.87333 37.6319 7.42667 37.6319 8C37.6319 8.57333 37.7252 9.12667 37.9119 9.66C38.0985 10.1933 38.3652 10.6667 38.7119 11.08C39.0719 11.4933 39.5052 11.8267 40.0119 12.08C40.5185 12.32 41.0919 12.44 41.7319 12.44ZM51.1056 0.999999H56.9656C57.739 0.999999 58.439 1.14 59.0656 1.42C59.6923 1.68667 60.2256 2.05333 60.6656 2.52C61.119 2.97333 61.4656 3.50667 61.7056 4.12C61.9456 4.73333 62.0656 5.38 62.0656 6.06C62.0656 6.74 61.9456 7.38667 61.7056 8C61.4656 8.61333 61.119 9.15333 60.6656 9.62C60.2256 10.0733 59.6923 10.44 59.0656 10.72C58.439 10.9867 57.739 11.12 56.9656 11.12H54.3456V15H51.1056V0.999999ZM56.5656 8.48C56.899 8.48 57.2056 8.41333 57.4856 8.28C57.7656 8.14667 57.999 7.97333 58.1856 7.76C58.3856 7.53333 58.539 7.27333 58.6456 6.98C58.7523 6.68667 58.8056 6.38 58.8056 6.06C58.8056 5.74 58.7523 5.43333 58.6456 5.14C58.539 4.84667 58.3856 4.59333 58.1856 4.38C57.999 4.15333 57.7656 3.97333 57.4856 3.84C57.2056 3.70667 56.899 3.64 56.5656 3.64H54.3456V8.48H56.5656ZM71.8809 9.44H67.0409V15H63.8009V0.999999H67.0409V6.66H71.8809V0.999999H75.1009V15H71.8809V9.44ZM82.4853 15H78.9053L81.4853 9.74L76.5253 0.999999H80.3053L83.2853 6.5L85.8453 0.999999H89.4253L82.4853 15ZM1.26 20H7.06C8.02 20 8.79333 20.1333 9.38 20.4C9.98 20.6533 10.44 20.9733 10.76 21.36C11.0933 21.7333 11.3133 22.14 11.42 22.58C11.54 23.02 11.6 23.42 11.6 23.78C11.6 24.22 11.5267 24.62 11.38 24.98C11.2333 25.3267 11.04 25.6333 10.8 25.9C10.56 26.1667 10.2933 26.3867 10 26.56C9.72 26.72 9.44 26.8333 9.16 26.9C9.38667 26.9 9.64667 26.9733 9.94 27.12C10.2333 27.2533 10.5133 27.4533 10.78 27.72C11.0467 27.9733 11.2667 28.3 11.44 28.7C11.6267 29.1 11.72 29.56 11.72 30.08C11.72 30.44 11.66 30.8467 11.54 31.3C11.42 31.7533 11.1933 32.18 10.86 32.58C10.5267 32.98 10.06 33.32 9.46 33.6C8.86 33.8667 8.08 34 7.12 34H1.26V20ZM6.42 25.7C6.82 25.7 7.14 25.6467 7.38 25.54C7.63333 25.4333 7.83333 25.3 7.98 25.14C8.12667 24.9667 8.22667 24.78 8.28 24.58C8.33333 24.38 8.36 24.1933 8.36 24.02C8.36 23.86 8.33333 23.6867 8.28 23.5C8.24 23.3133 8.14667 23.14 8 22.98C7.86667 22.8067 7.67333 22.6667 7.42 22.56C7.16667 22.44 6.83333 22.38 6.42 22.38H4.48V25.7H6.42ZM4.48 28.08V31.52H6.5C6.9 31.52 7.22 31.4667 7.46 31.36C7.71333 31.2533 7.91333 31.12 8.06 30.96C8.20667 30.7867 8.30667 30.6 8.36 30.4C8.41333 30.2 8.44 30 8.44 29.8C8.44 29.64 8.41333 29.46 8.36 29.26C8.30667 29.06 8.20667 28.8733 8.06 28.7C7.92667 28.5267 7.73333 28.38 7.48 28.26C7.22667 28.14 6.90667 28.08 6.52 28.08H4.48ZM20.7163 34.36C19.5563 34.36 18.5163 34.16 17.5963 33.76C16.6763 33.3467 15.8963 32.8 15.2563 32.12C14.6163 31.44 14.1296 30.66 13.7963 29.78C13.4629 28.8867 13.2963 27.96 13.2963 27C13.2963 26.04 13.4629 25.12 13.7963 24.24C14.1296 23.3467 14.6163 22.56 15.2563 21.88C15.8963 21.2 16.6763 20.66 17.5963 20.26C18.5163 19.8467 19.5563 19.64 20.7163 19.64C21.8763 19.64 22.9096 19.8467 23.8163 20.26C24.7363 20.66 25.5163 21.2 26.1563 21.88C26.7963 22.56 27.2829 23.3467 27.6163 24.24C27.9496 25.12 28.1163 26.04 28.1163 27C28.1163 27.96 27.9496 28.8867 27.6163 29.78C27.2829 30.66 26.7963 31.44 26.1563 32.12C25.5163 32.8 24.7363 33.3467 23.8163 33.76C22.9096 34.16 21.8763 34.36 20.7163 34.36ZM20.7163 31.44C21.3563 31.44 21.9296 31.32 22.4363 31.08C22.9429 30.8267 23.3696 30.4933 23.7163 30.08C24.0763 29.6667 24.3496 29.1933 24.5363 28.66C24.7229 28.1267 24.8163 27.5733 24.8163 27C24.8163 26.4267 24.7229 25.8733 24.5363 25.34C24.3496 24.8067 24.0763 24.3333 23.7163 23.92C23.3696 23.5067 22.9429 23.18 22.4363 22.94C21.9296 22.6867 21.3563 22.56 20.7163 22.56C20.0763 22.56 19.5029 22.6867 18.9963 22.94C18.4896 23.18 18.0563 23.5067 17.6963 23.92C17.3496 24.3333 17.0829 24.8067 16.8963 25.34C16.7096 25.8733 16.6163 26.4267 16.6163 27C16.6163 27.5733 16.7096 28.1267 16.8963 28.66C17.0829 29.1933 17.3496 29.6667 17.6963 30.08C18.0563 30.4933 18.4896 30.8267 18.9963 31.08C19.5029 31.32 20.0763 31.44 20.7163 31.44ZM37.85 26.6H45.11V29.02H43.67C43.5233 29.82 43.27 30.5467 42.91 31.2C42.55 31.8533 42.0767 32.4133 41.49 32.88C40.9033 33.3467 40.21 33.7133 39.41 33.98C38.6233 34.2333 37.73 34.36 36.73 34.36C35.5567 34.36 34.51 34.16 33.59 33.76C32.6833 33.36 31.9167 32.8267 31.29 32.16C30.6767 31.48 30.2033 30.7 29.87 29.82C29.55 28.9267 29.39 27.9867 29.39 27C29.39 26.04 29.5567 25.12 29.89 24.24C30.2233 23.3467 30.7033 22.56 31.33 21.88C31.97 21.2 32.7433 20.66 33.65 20.26C34.5567 19.8467 35.5833 19.64 36.73 19.64C37.65 19.64 38.49 19.7733 39.25 20.04C40.0233 20.2933 40.69 20.6467 41.25 21.1C41.81 21.54 42.2567 22.06 42.59 22.66C42.9233 23.2467 43.1233 23.8733 43.19 24.54H39.73C39.6767 24.26 39.57 23.9933 39.41 23.74C39.25 23.4867 39.0367 23.2667 38.77 23.08C38.5167 22.88 38.2167 22.7267 37.87 22.62C37.5233 22.5 37.1367 22.44 36.71 22.44C36.0433 22.44 35.4633 22.5667 34.97 22.82C34.4767 23.0733 34.0567 23.4133 33.71 23.84C33.3767 24.2667 33.1233 24.76 32.95 25.32C32.79 25.8667 32.71 26.4333 32.71 27.02C32.71 27.6467 32.7967 28.24 32.97 28.8C33.1433 29.3467 33.4033 29.8333 33.75 30.26C34.11 30.6733 34.5567 31.0067 35.09 31.26C35.6367 31.5 36.27 31.62 36.99 31.62C37.4833 31.62 37.9233 31.5533 38.31 31.42C38.6967 31.2733 39.03 31.08 39.31 30.84C39.59 30.6 39.8167 30.3267 39.99 30.02C40.1633 29.7 40.2767 29.3667 40.33 29.02H37.85V26.6ZM46.5692 20H49.8092V29.2C49.8092 29.52 49.8626 29.8267 49.9692 30.12C50.0759 30.4 50.2226 30.6467 50.4092 30.86C50.6092 31.0733 50.8426 31.2467 51.1092 31.38C51.3759 31.5 51.6759 31.56 52.0092 31.56C52.3426 31.56 52.6426 31.5 52.9092 31.38C53.1892 31.2467 53.4226 31.0733 53.6092 30.86C53.8092 30.6467 53.9626 30.4 54.0692 30.12C54.1759 29.8267 54.2292 29.52 54.2292 29.2V20H57.4692V29.22C57.4692 29.94 57.3426 30.6133 57.0892 31.24C56.8359 31.8667 56.4692 32.4133 55.9892 32.88C55.5226 33.3333 54.9492 33.6933 54.2692 33.96C53.6026 34.2267 52.8492 34.36 52.0092 34.36C51.1692 34.36 50.4159 34.2267 49.7492 33.96C49.0826 33.6933 48.5092 33.3333 48.0292 32.88C47.5626 32.4133 47.2026 31.8667 46.9492 31.24C46.6959 30.6133 46.5692 29.94 46.5692 29.22V20ZM68.3738 29.12V20H71.5938V34H68.2138L63.1738 25V34H59.9338V20H63.3138L68.3738 29.12Z" fill="white"/>
</svg>
