<?xml version="1.0" standalone="no"?>
<!DOCTYPE svg PUBLIC "-//W3C//DTD SVG 20010904//EN"
 "http://www.w3.org/TR/2001/REC-SVG-20010904/DTD/svg10.dtd">
<svg version="1.0" xmlns="http://www.w3.org/2000/svg"
 width="700.000000pt" height="700.000000pt" viewBox="0 0 700.000000 700.000000"
 preserveAspectRatio="xMidYMid meet">
<metadata>
Created by potrace 1.14, written by Peter Selinger 2001-2017
</metadata>
<g transform="translate(0.000000,700.000000) scale(0.100000,-0.100000)"
fill="#000000" stroke="none">
<path d="M3634 6975 c-33 -50 20 -104 71 -71 32 21 33 59 3 80 -32 23 -55 20
-74 -9z"/>
<path d="M3801 6861 c-13 -24 8 -55 34 -50 28 6 42 34 26 53 -18 22 -48 20
-60 -3z"/>
<path d="M3916 6863 c-10 -26 23 -48 42 -29 8 8 12 22 9 30 -8 21 -43 20 -51
-1z"/>
<path d="M3261 6830 c-67 -27 -126 -67 -174 -119 -80 -85 -97 -155 -52 -209
49 -58 140 -49 177 17 29 52 3 134 -47 147 -33 8 -32 24 3 26 97 5 159 -17
206 -73 45 -54 58 -96 58 -189 -1 -125 -50 -269 -160 -462 -48 -86 -50 -88
-92 -93 -28 -4 -30 -2 -24 21 8 31 -10 68 -40 82 -50 22 -116 -41 -116 -112 0
-19 -6 -26 -20 -27 -11 -1 -26 -2 -32 -3 -7 -1 -13 11 -14 25 -1 14 -4 31 -8
38 -11 17 -45 13 -58 -8 -10 -16 -20 -19 -58 -14 -30 3 -58 0 -83 -11 -36 -15
-41 -14 -75 2 -47 23 -81 20 -140 -13 l-47 -26 41 39 c22 21 48 49 56 61 l16
23 21 -21 c15 -15 26 -18 42 -12 16 5 27 3 41 -11 20 -20 63 -24 73 -8 5 8 11
7 21 -1 19 -15 44 -4 44 20 0 29 -21 37 -37 15 -13 -18 -14 -17 -8 7 10 41
-42 72 -85 49 -13 -7 -21 -5 -31 6 -7 8 -21 13 -32 10 -14 -3 -17 -1 -12 12 7
16 22 73 30 115 2 9 0 17 -4 17 -5 0 -12 -21 -16 -47 -13 -87 -85 -202 -154
-248 -16 -10 -28 -22 -25 -26 2 -4 -1 -11 -7 -15 -8 -5 -9 -3 -4 6 6 10 4 12
-9 7 -10 -4 -20 -7 -22 -7 -3 0 -3 -3 -1 -7 8 -13 -51 -9 -63 3 -9 9 2 18 43
37 144 66 229 222 206 380 -10 64 -59 159 -104 199 -20 18 -64 47 -98 65 -59
31 -67 32 -157 29 -114 -3 -166 -23 -238 -95 -81 -78 -113 -160 -107 -276 4
-88 39 -166 103 -230 45 -46 135 -95 171 -95 14 0 21 -6 21 -20 0 -47 -125 0
-209 79 -92 86 -131 178 -126 298 6 159 90 285 234 351 49 23 70 26 161 26
100 1 108 -1 173 -34 115 -58 200 -172 214 -289 3 -28 10 -51 15 -51 5 0 7 12
4 28 -4 15 -9 40 -12 56 -16 92 -111 214 -200 259 -77 39 -121 49 -198 49
-164 -2 -297 -88 -370 -242 -28 -59 -31 -74 -31 -166 0 -99 1 -104 41 -182 33
-65 38 -81 26 -88 -8 -5 -27 -32 -42 -59 -15 -27 -34 -54 -42 -59 -10 -6 -43
4 -107 34 -100 45 -141 51 -189 26 -65 -34 -77 -83 -53 -224 15 -93 10 -107
-42 -117 -98 -20 -127 -43 -106 -88 11 -24 59 -52 190 -111 51 -22 85 -45 105
-69 l28 -36 24 47 c13 26 41 70 63 98 l39 51 -21 44 c-12 24 -45 80 -74 124
-79 122 -107 173 -98 178 12 8 41 -18 113 -103 36 -41 89 -98 118 -126 l52
-51 61 24 c33 13 81 27 108 30 l49 6 -24 34 c-24 35 -39 95 -50 198 -3 33 -8
68 -10 78 -3 17 -2 17 24 -1 37 -24 90 -48 128 -56 30 -7 32 -9 28 -49 -9
-103 -34 -187 -56 -187 -5 0 -6 -4 -3 -10 3 -5 22 -10 41 -10 37 0 46 -15 14
-25 -10 -3 -47 -7 -82 -9 -226 -10 -400 -172 -424 -394 -6 -56 -27 -102 -38
-84 -7 11 2 131 11 145 4 7 -2 7 -18 2 -46 -15 -116 -17 -175 -5 -110 23 -183
24 -205 5 -29 -28 -23 -54 26 -106 25 -26 45 -54 45 -61 0 -25 -17 -40 -37
-34 -26 8 -47 -17 -40 -46 4 -17 -2 -31 -24 -52 -16 -16 -34 -44 -41 -63 -15
-40 -20 -41 -35 -5 -17 36 -69 93 -116 124 -31 21 -50 26 -90 24 -42 -1 -59 3
-87 24 -28 20 -47 25 -92 25 -77 0 -130 -38 -176 -126 -55 -107 -46 -214 32
-354 49 -86 124 -175 191 -226 l54 -41 0 -66 c0 -83 31 -197 77 -280 31 -57
33 -67 25 -100 -6 -19 -9 -76 -7 -126 2 -71 8 -105 29 -155 15 -36 27 -66 27
-67 0 -2 -13 5 -30 14 -32 18 -91 125 -109 197 -71 293 -118 411 -199 505
-116 137 -362 198 -474 119 -74 -53 -85 -180 -22 -280 39 -62 115 -129 163
-143 112 -32 195 49 146 143 -8 16 -21 31 -30 35 -12 4 -11 -1 4 -22 32 -44
31 -95 -2 -116 -74 -49 -170 0 -244 124 -22 36 -27 58 -27 105 0 96 40 135
138 135 148 -1 299 -100 370 -243 39 -80 48 -105 101 -286 19 -68 47 -145 60
-171 l24 -48 -69 24 c-149 50 -334 70 -480 51 -75 -9 -170 -34 -170 -45 0 -17
45 -122 81 -192 82 -157 240 -335 386 -433 34 -23 63 -44 63 -47 0 -3 -19 -11
-42 -18 -64 -20 -108 -62 -162 -153 -65 -111 -106 -160 -162 -198 l-47 -31 64
0 c87 0 153 -19 295 -84 204 -93 270 -111 399 -110 68 0 101 5 136 21 58 26
115 76 150 132 28 43 29 44 37 20 7 -17 5 -30 -4 -44 -19 -27 -17 -42 6 -48
28 -7 26 -50 -2 -77 -63 -59 -186 -102 -270 -94 -48 5 -77 24 -37 24 13 1 34
6 46 13 18 10 8 11 -60 9 -119 -5 -280 44 -480 145 -27 13 -56 21 -66 18 -48
-15 -221 -216 -221 -256 0 -46 164 -155 269 -178 48 -10 160 -9 204 4 24 6 21
1 -28 -49 -168 -173 -279 -436 -290 -690 l-2 -58 66 6 c36 3 75 7 86 10 35 6
100 19 110 22 139 32 408 175 507 268 15 14 30 26 33 26 3 0 5 -17 5 -38 0
-42 26 -128 42 -138 6 -4 7 15 3 52 -8 75 -8 224 0 289 25 203 118 363 242
416 45 19 48 19 60 3 11 -15 8 -20 -27 -35 -165 -74 -243 -260 -236 -559 4
-147 23 -258 62 -375 16 -49 23 -83 18 -98 -33 -98 -22 -220 28 -324 142 -290
558 -311 734 -36 19 29 34 58 34 63 0 23 24 15 100 -35 88 -58 95 -61 105 -45
3 5 25 -14 48 -42 81 -99 180 -125 278 -72 169 93 280 384 225 592 -17 61 -23
59 100 32 49 -11 100 -20 114 -20 l26 0 -4 -93 c-9 -218 78 -476 198 -585 163
-147 418 -129 474 35 9 25 16 59 16 73 0 19 14 41 44 71 65 65 84 163 56 284
-13 56 -64 171 -87 197 -13 15 -10 17 44 28 32 6 68 14 81 17 16 4 22 1 22
-11 0 -8 9 -20 19 -26 24 -12 52 11 46 39 -3 14 4 20 28 25 26 5 37 1 66 -27
37 -35 40 -38 103 -86 86 -65 245 -135 383 -168 109 -26 335 -23 449 6 355 91
629 344 740 684 26 80 32 109 42 199 l7 57 48 10 c116 25 202 93 252 199 60
128 32 280 -71 385 -25 26 -52 47 -59 47 -7 0 -13 4 -13 8 0 16 -113 44 -175
43 -55 0 -96 -10 -157 -35 -29 -13 -32 30 -7 97 12 34 26 67 29 72 4 6 11 25
15 43 5 25 20 41 68 74 353 236 571 622 562 992 -8 319 -127 630 -363 951 -32
43 -32 44 -12 55 62 33 146 11 134 -35 -9 -36 3 -62 36 -75 43 -18 85 -5 103
33 14 28 14 35 1 67 -18 43 -62 80 -121 101 l-44 16 33 13 c46 18 133 112 154
166 29 77 -3 225 -55 253 -42 23 -82 20 -114 -9 -60 -54 -24 -140 60 -140 33
0 35 -1 28 -27 -11 -47 -54 -103 -101 -133 -107 -67 -307 -60 -509 20 -38 16
-88 35 -109 43 l-40 14 36 24 c68 45 123 156 112 227 -13 82 -18 100 -41 145
-13 27 -28 46 -33 41 -4 -5 -15 -32 -24 -61 -22 -68 -81 -158 -138 -210 -45
-41 -135 -93 -160 -93 -7 0 -41 28 -75 63 -60 59 -62 64 -54 97 8 36 6 189 -2
247 -9 58 -47 184 -67 223 -11 22 -20 41 -20 43 0 3 18 7 41 10 90 12 159 94
159 190 0 25 -4 48 -8 51 -5 3 -28 -2 -53 -11 -59 -21 -104 -12 -166 35 -28
20 -87 65 -133 100 -258 196 -624 272 -920 191 -94 -25 -234 -95 -325 -161
l-70 -51 53 57 c64 68 93 131 117 255 15 80 23 100 52 132 l34 38 -43 8 c-59
13 -96 0 -140 -46 -21 -22 -38 -39 -39 -38 0 1 -2 18 -3 37 -6 66 -26 117 -60
152 -56 57 -157 73 -245 38z m-886 -385 c166 -81 215 -300 102 -457 -23 -31
-89 -79 -134 -97 -28 -11 -33 -11 -52 8 -27 27 -66 27 -85 0 -12 -17 -20 -20
-48 -14 -117 24 -213 142 -222 272 -5 69 7 113 46 178 80 134 249 181 393 110z
m1910 -70 c100 -9 126 -15 220 -47 156 -53 299 -135 395 -225 57 -54 150 -96
204 -91 42 3 45 1 40 -17 -3 -11 -19 -33 -35 -50 -28 -28 -35 -30 -117 -33
l-88 -4 -60 61 c-32 34 -62 61 -66 61 -5 0 -8 -20 -8 -45 0 -53 -9 -57 -34
-14 -25 42 -127 144 -196 196 -30 22 -88 66 -129 97 -40 31 -76 55 -78 52 -3
-3 4 -17 14 -33 19 -27 53 -87 113 -197 15 -29 31 -67 35 -85 7 -32 5 -31 -47
30 -106 125 -198 173 -353 184 -44 3 -105 7 -135 10 -128 11 -234 16 -230 12
3 -3 91 -37 195 -77 214 -81 228 -89 255 -133 37 -60 26 -69 -34 -33 -91 55
-156 71 -281 70 -98 0 -119 -4 -192 -31 -45 -17 -117 -55 -160 -84 -64 -43
-87 -53 -130 -57 -29 -2 -53 0 -53 5 0 18 187 207 267 269 102 81 265 165 364
189 65 16 227 34 254 29 6 -2 37 -5 70 -9z m-31 -259 c28 -14 70 -42 92 -63
47 -43 154 -179 154 -197 1 -22 50 46 52 72 1 15 2 38 3 52 1 14 -4 45 -11 70
-7 24 -12 45 -10 47 3 4 120 -115 146 -149 26 -34 70 -128 70 -150 0 -10 4
-18 9 -18 18 0 61 62 61 87 0 39 20 23 56 -47 54 -106 89 -225 91 -313 1 -44
-1 -85 -3 -92 -4 -9 -31 5 -87 46 -254 182 -616 336 -927 394 -28 5 -100 17
-128 21 -41 5 -203 18 -239 18 -18 0 -33 4 -33 8 0 10 136 75 193 92 72 21
228 15 295 -13 58 -23 144 -76 180 -110 l22 -22 11 28 c33 87 -1 194 -78 244
l-48 31 39 -6 c22 -3 62 -16 90 -30z m710 -318 c39 -86 54 -131 66 -199 15
-78 21 -192 13 -231 -5 -25 -8 -27 -20 -15 -11 10 -11 20 -3 41 13 36 14 137
1 201 -10 53 -54 182 -77 228 -8 15 -12 27 -9 27 3 0 16 -24 29 -52z m-2194
-12 c0 -2 -9 -6 -20 -9 -11 -3 -20 -1 -20 4 0 5 9 9 20 9 11 0 20 -2 20 -4z
m-177 -65 c-4 -4 -21 -13 -38 -20 l-30 -13 20 23 c35 41 50 50 53 32 2 -8 0
-18 -5 -22z m-681 -427 l-37 -32 -13 31 c-13 30 -12 33 14 54 l28 22 23 -21
23 -21 -38 -33z m3578 -276 c309 -98 482 -254 664 -600 52 -99 124 -292 145
-390 34 -154 36 -363 4 -485 -61 -232 -215 -466 -408 -622 -43 -34 -79 -60
-81 -58 -2 2 1 19 6 38 5 19 11 45 14 59 3 14 11 54 19 90 l14 65 139 83 c151
90 150 88 14 66 -14 -2 -52 -7 -84 -10 -53 -6 -58 -5 -53 11 4 9 7 24 7 34 0
9 26 35 59 59 33 23 75 61 94 84 26 32 257 485 257 504 0 3 -73 -74 -161 -170
-125 -137 -210 -217 -227 -214 -20 4 -26 64 -8 76 30 17 112 133 143 199 68
147 75 318 23 518 -18 66 -39 148 -48 183 -16 64 -25 66 -35 7 -5 -27 -45
-215 -51 -240 -24 -93 -84 -215 -107 -215 -5 0 -11 11 -15 25 -5 19 4 47 32
102 37 73 39 80 39 172 0 123 -8 160 -50 246 -66 132 -194 255 -335 321 -41
19 -83 39 -92 44 -10 6 -24 10 -31 10 -7 0 -24 12 -38 26 l-24 26 40 -7 c22
-4 83 -21 135 -37z m-4699 -93 c25 -8 24 -27 -2 -51 -49 -44 -80 -137 -67
-199 24 -105 129 -122 187 -30 32 51 38 109 17 180 -9 27 -13 51 -11 53 2 3
20 2 38 -2 24 -4 49 -22 81 -56 77 -82 77 -84 2 -163 -91 -95 -158 -223 -180
-344 -3 -14 -7 -28 -10 -30 -10 -10 -138 132 -176 196 -103 174 -110 298 -23
401 42 51 84 64 144 45z m4774 -86 c161 -113 254 -272 257 -440 1 -56 -29
-167 -41 -152 -4 4 -22 49 -40 98 -62 167 -183 397 -288 544 l-17 23 44 -22
c25 -13 63 -35 85 -51z m-4020 41 c-9 -15 -45 -32 -45 -22 0 5 10 14 23 20 29
14 29 14 22 2z m-676 -61 c6 -18 11 -55 11 -84 0 -80 -52 -122 -95 -75 -25 28
-15 110 20 156 32 42 50 43 64 3z m621 -13 c-16 -27 -29 -33 -94 -47 -89 -18
-142 -40 -216 -90 -147 -98 -238 -263 -245 -444 -6 -156 40 -291 135 -397 39
-44 47 -60 45 -86 -1 -18 -5 -35 -8 -38 -2 -3 -33 27 -69 65 -111 119 -170
269 -170 431 -1 173 61 319 187 445 103 103 212 162 336 180 24 4 45 7 46 8 1
1 17 2 37 3 l36 1 -20 -31z m-121 -208 c-29 -59 -59 -101 -104 -144 -47 -46
-68 -77 -85 -120 -26 -69 -33 -154 -18 -213 9 -35 7 -62 -7 -137 -11 -52 -22
-94 -26 -94 -15 0 -84 127 -96 175 -44 186 1 351 131 480 63 63 179 128 239
134 4 1 -11 -36 -34 -81z m-107 -215 c-41 -64 -53 -97 -59 -168 -7 -85 -22
-91 -18 -7 2 75 32 155 76 204 35 39 36 25 1 -29z m4759 -115 c19 -69 20 -214
2 -293 -27 -121 -130 -293 -139 -232 -1 7 -5 40 -9 73 -3 32 -12 87 -19 121
l-13 62 37 40 c47 49 107 166 116 226 3 25 8 45 10 45 2 0 9 -19 15 -42z m8
-730 c-18 -33 -110 -128 -124 -128 -10 0 -13 36 -6 70 0 4 18 12 39 19 20 8
51 24 67 37 37 29 39 29 24 2z m-4867 -562 c4 -6 5 -12 3 -14 -4 -4 -95 57
-95 64 0 7 84 -38 92 -50z m30 -185 c16 -6 28 -23 36 -47 6 -21 10 -39 8 -41
-2 -2 -52 12 -112 32 -60 19 -116 35 -124 36 -8 0 -1 7 15 14 34 16 142 19
177 6z m43 -174 c29 -10 45 -23 57 -48 23 -48 7 -53 -88 -28 -194 52 -221 59
-248 59 -37 0 -25 14 24 29 45 14 204 6 255 -12z m4812 -124 c62 -31 117 -89
144 -150 20 -47 37 -129 33 -159 -10 -75 -17 -99 -40 -141 -35 -63 -76 -105
-133 -136 -54 -30 -123 -48 -141 -37 -18 11 -3 30 25 30 70 0 179 80 223 164
23 44 27 63 27 136 0 75 -4 91 -30 138 -32 60 -75 101 -138 134 -54 29 -193
32 -243 5 -17 -9 -34 -13 -38 -10 -14 15 -4 30 32 43 91 34 191 28 279 -17z
m-278 -142 c51 -101 80 -195 96 -307 7 -50 7 -230 0 -269 -5 -28 -17 -93 -20
-105 -17 -75 -65 -191 -109 -265 -248 -416 -757 -598 -1203 -430 -115 44 -248
124 -331 201 l-24 21 41 17 c57 22 65 21 124 -23 247 -183 581 -227 865 -115
37 15 79 35 94 45 14 11 29 19 33 19 14 0 99 64 159 121 292 273 363 737 166
1086 -31 55 -31 63 3 120 l19 33 25 -36 c13 -20 41 -71 62 -113z m225 82 c58
-30 93 -63 121 -114 74 -137 5 -313 -143 -363 -65 -23 -69 -21 -68 21 1 33 4
38 36 46 162 41 179 265 26 344 -33 17 -116 19 -145 3 -17 -9 -23 -6 -36 19
-8 17 -15 32 -15 35 0 3 21 12 47 19 56 17 134 12 177 -10z m-34 -82 c49 -24
88 -78 94 -131 3 -25 3 -36 0 -25 -29 111 -71 153 -154 158 -22 1 -40 5 -40 9
0 13 66 5 100 -11z m-120 -1 c-20 -13 -33 -13 -25 0 3 6 14 10 23 10 15 0 15
-2 2 -10z m141 -56 c74 -71 45 -189 -54 -223 -32 -12 -28 -19 -56 95 -11 44
-27 97 -36 117 l-15 36 32 9 c46 12 95 -1 129 -34z m-4495 -90 l42 -63 -37
-12 c-56 -17 -158 -81 -256 -160 -79 -63 -89 -66 -35 -10 55 58 153 203 207
310 15 29 19 31 28 16 5 -9 29 -46 51 -81z m4092 9 c47 -112 57 -162 56 -308
-1 -124 -4 -149 -27 -220 -96 -287 -332 -489 -622 -531 -92 -13 -161 -11 -285
12 -84 14 -294 121 -260 132 8 2 62 27 119 54 l105 50 50 -17 c28 -9 87 -19
131 -22 302 -20 569 220 579 521 2 43 -1 98 -6 121 -9 42 -8 45 56 139 36 53
66 101 66 106 0 25 19 6 38 -37z m472 -68 c-18 -47 -42 -74 -84 -95 -46 -22
-71 -26 -61 -10 4 6 10 8 14 6 18 -12 87 41 106 81 22 45 41 59 25 18z m-671
-235 c-6 -200 -105 -359 -284 -455 -77 -42 -246 -59 -335 -35 -41 11 -43 13
-26 25 13 10 25 11 42 5 37 -15 202 -4 259 16 99 35 199 121 254 218 32 57 63
180 60 241 -1 22 1 48 6 58 14 33 26 -3 24 -73z m-105 -45 c-2 -14 -6 -37 -9
-52 -8 -50 -59 -138 -107 -186 -65 -65 -155 -106 -250 -114 l-73 -6 90 68
c114 86 192 154 280 244 39 39 71 71 72 71 1 0 0 -11 -3 -25z m-3451 -125
c-14 -35 -54 -90 -66 -90 -3 0 -1 17 5 37 6 21 8 66 5 101 l-6 64 38 -37 38
-38 -14 -37z m743 -446 c33 -15 103 -41 157 -59 55 -18 103 -37 108 -42 20
-20 40 -120 40 -200 1 -128 -37 -236 -121 -342 -97 -123 -215 -111 -305 30
l-24 36 24 76 c20 66 28 105 51 252 8 48 30 52 85 14 29 -20 55 -87 46 -120
-4 -15 -3 -19 5 -11 15 15 12 75 -6 111 -19 36 -70 71 -103 71 -22 0 -23 4
-23 83 0 45 -3 92 -6 105 -8 28 1 28 72 -4z m-604 -31 c315 -146 320 -594 7
-746 -156 -76 -335 -48 -462 72 -120 113 -158 283 -102 451 14 42 82 136 122
167 88 70 161 93 278 89 76 -2 101 -7 157 -33z m1548 -157 c80 1 173 3 208 7
l62 6 34 -52 c75 -113 103 -283 60 -357 -20 -34 -44 -51 -44 -30 0 24 -82 136
-115 157 -66 44 -161 51 -213 17 -34 -22 -56 -75 -48 -117 18 -97 125 -170
250 -171 39 -1 74 -5 77 -10 4 -5 3 -22 -2 -39 -38 -133 -258 -131 -390 5 -74
77 -151 271 -166 418 -6 69 -6 72 -4 137 l1 42 73 -6 c39 -4 137 -7 217 -7z
m148 -321 c41 -27 68 -59 96 -113 l17 -32 -28 -11 c-56 -21 -140 8 -192 67
-35 39 -38 59 -15 92 21 30 74 29 122 -3z"/>
<path d="M2178 6388 c-21 -6 -57 -27 -81 -48 -146 -129 -71 -360 122 -377 135
-12 241 91 235 230 -5 129 -145 228 -276 195z m151 -32 c39 -21 88 -79 99
-119 16 -56 5 -127 -26 -172 -101 -145 -322 -100 -357 72 -20 96 18 173 106
217 56 28 126 29 178 2z"/>
<path d="M2205 6361 c-114 -28 -177 -134 -143 -241 12 -41 62 -97 98 -112 127
-53 263 31 262 161 -1 93 -51 161 -136 186 -27 8 -50 15 -50 14 -1 -1 -14 -4
-31 -8z m122 -54 c98 -66 88 -217 -19 -273 -62 -32 -158 -6 -203 54 -30 41
-28 136 4 181 49 68 147 85 218 38z"/>
<path d="M1705 1251 c-229 -56 -352 -313 -250 -524 115 -238 432 -283 613 -87
13 14 38 54 55 90 29 59 32 73 32 160 -1 105 -18 158 -76 231 -83 105 -245
161 -374 130z m200 -69 c77 -26 155 -109 182 -193 106 -324 -291 -561 -528
-316 -55 56 -83 131 -83 217 0 90 22 147 83 213 89 96 215 125 346 79z"/>
<path d="M1728 1105 c-127 -32 -194 -159 -153 -290 46 -146 229 -202 353 -107
104 80 117 244 26 335 -64 64 -139 85 -226 62z m169 -41 c23 -13 51 -39 63
-59 25 -40 42 -95 30 -95 -4 0 -11 12 -15 28 -28 117 -174 179 -280 119 -157
-89 -121 -319 56 -358 71 -16 139 8 188 68 29 35 46 79 44 116 0 9 4 17 8 17
26 0 -5 -100 -47 -148 -95 -111 -273 -88 -339 42 -43 86 -29 172 40 241 67 67
167 79 252 29z m-32 -30 c11 -4 30 -19 43 -32 105 -111 19 -289 -133 -278
-155 12 -206 218 -76 303 47 31 101 33 166 7z"/>
<path d="M3983 6823 c-10 -3 -10 -10 -2 -24 8 -16 13 -18 24 -9 8 6 11 18 8
26 -5 15 -10 16 -30 7z"/>
<path d="M3721 6781 c-13 -23 10 -47 34 -37 20 7 19 42 -1 50 -22 8 -22 8 -33
-13z"/>
<path d="M3974 6715 c-9 -23 3 -45 25 -45 23 0 35 28 20 46 -15 18 -38 18 -45
-1z"/>
<path d="M4285 6700 c-27 -29 -10 -74 28 -78 37 -4 57 13 57 49 0 47 -53 65
-85 29z"/>
<path d="M4188 6699 c-29 -16 -23 -57 9 -65 36 -9 59 20 40 50 -17 25 -27 28
-49 15z"/>
<path d="M4047 6693 c-22 -21 2 -56 31 -46 17 7 15 40 -4 47 -19 7 -19 7 -27
-1z"/>
<path d="M4070 6611 c-7 -15 -7 -22 2 -28 33 -20 54 -7 43 27 -8 25 -31 26
-45 1z"/>
<path d="M4233 6613 c-7 -3 -13 -13 -13 -23 0 -19 17 -30 38 -23 6 3 12 13 12
23 0 19 -17 30 -37 23z"/>
<path d="M4363 6574 c-7 -20 17 -37 34 -23 15 13 6 39 -13 39 -8 0 -17 -7 -21
-16z"/>
<path d="M4400 6531 c-14 -27 -13 -46 5 -61 20 -17 62 -5 70 20 15 48 -51 85
-75 41z"/>
<path d="M4496 6474 c-19 -18 -19 -20 -6 -45 15 -27 70 -15 70 16 0 15 -27 45
-40 45 -5 0 -16 -7 -24 -16z"/>
<path d="M5630 6199 c0 -5 15 -9 33 -9 46 0 132 -43 173 -87 44 -46 60 -76 78
-145 10 -37 15 -45 15 -26 1 38 -40 127 -79 172 -18 20 -55 48 -82 62 -53 27
-138 47 -138 33z"/>
<path d="M5515 6187 c-89 -35 -141 -84 -181 -170 -71 -158 0 -341 161 -412 51
-23 135 -39 135 -26 0 4 -19 8 -42 10 -99 5 -200 80 -246 181 -45 98 -26 235
44 319 32 39 101 80 156 95 29 8 42 15 28 15 -14 0 -38 -6 -55 -12z"/>
<path d="M2630 6170 c0 -5 5 -10 10 -10 6 0 10 5 10 10 0 6 -4 10 -10 10 -5 0
-10 -4 -10 -10z"/>
<path d="M5545 6153 c-162 -47 -243 -222 -173 -373 32 -69 68 -106 136 -137
178 -83 386 52 384 248 -1 180 -175 312 -347 262z m135 -38 c99 -23 170 -118
170 -227 -1 -172 -178 -280 -333 -204 -115 56 -163 197 -106 311 52 102 153
147 269 120z"/>
<path d="M5554 6044 c-115 -60 -137 -190 -47 -276 84 -80 217 -50 265 59 31
71 5 155 -63 204 -38 27 -115 33 -155 13z m141 -23 c107 -60 99 -213 -14 -267
-36 -17 -51 -19 -90 -12 -78 14 -135 94 -120 168 l6 35 2 -43 c3 -92 55 -152
134 -152 112 0 177 100 133 205 -17 39 -68 75 -108 75 -16 0 -28 5 -28 10 0
13 46 3 85 -19z m-131 0 c-22 -10 -51 -31 -63 -47 -19 -23 -20 -24 -9 -4 18
29 74 70 97 70 9 0 -2 -9 -25 -19z m116 -26 c83 -43 75 -180 -12 -216 -38 -16
-105 -5 -133 21 -13 12 -27 38 -32 58 -27 108 77 188 177 137z"/>
<path d="M5923 5877 c-10 -143 -92 -242 -234 -282 -52 -15 -52 -15 -11 -10 86
11 170 71 214 152 26 48 51 150 39 158 -4 2 -8 -6 -8 -18z"/>
<path d="M1242 5418 c-19 -35 -76 -70 -117 -71 l-37 -1 31 -26 c36 -29 63 -90
57 -125 l-5 -25 28 21 c66 49 170 56 306 23 11 -3 -21 15 -72 40 -97 48 -148
96 -168 156 l-11 32 -12 -24z"/>
<path d="M532 5238 c-7 -7 -12 -18 -12 -25 0 -13 -46 -63 -59 -63 -4 0 -16 -9
-26 -20 -15 -17 -16 -24 -7 -45 19 -41 82 -29 82 16 0 9 9 19 20 22 11 3 20
13 20 24 0 10 10 23 22 28 13 6 24 18 26 28 7 37 -39 62 -66 35z"/>
<path d="M691 5231 c-9 -17 -8 -22 10 -32 25 -13 43 0 37 27 -5 26 -35 29 -47
5z"/>
<path d="M610 5221 c0 -11 4 -22 8 -25 14 -9 35 12 29 28 -9 23 -37 20 -37 -3z"/>
<path d="M956 5216 c-31 -24 -18 -76 20 -76 45 0 57 72 14 83 -10 3 -26 0 -34
-7z"/>
<path d="M742 5148 c-29 -29 3 -73 34 -47 19 15 18 45 -2 53 -20 8 -18 8 -32
-6z"/>
<path d="M834 5139 c-8 -14 21 -43 35 -35 6 4 11 16 11 27 0 21 -34 27 -46 8z"/>
<path d="M1084 5076 c-9 -23 7 -38 26 -26 13 8 13 11 -2 26 -16 17 -18 17 -24
0z"/>
<path d="M952 5048 c-7 -7 -12 -18 -12 -25 0 -15 30 -32 48 -26 17 7 15 50 -4
57 -20 8 -18 8 -32 -6z"/>
<path d="M1131 5040 c-11 -6 -12 -14 -5 -30 8 -19 11 -19 29 -6 18 13 18 16 5
30 -10 10 -20 12 -29 6z"/>
<path d="M454 5009 c-3 -6 0 -17 8 -25 13 -13 16 -13 27 0 7 8 10 20 6 26 -8
13 -32 13 -41 -1z"/>
<path d="M383 4990 c-17 -27 9 -55 38 -40 22 12 25 30 7 48 -17 17 -31 15 -45
-8z"/>
<path d="M1136 4961 c-14 -15 -14 -19 0 -39 8 -12 19 -22 24 -22 17 0 38 30
33 49 -7 26 -38 33 -57 12z"/>
<path d="M282 4943 c5 -26 38 -29 38 -4 0 15 -6 21 -21 21 -14 0 -19 -5 -17
-17z"/>
<path d="M231 4882 c-12 -23 4 -52 28 -52 34 0 52 43 26 62 -18 13 -44 8 -54
-10z"/>
<path d="M286 4765 c-8 -22 1 -35 25 -35 15 0 20 6 17 22 -4 27 -33 36 -42 13z"/>
<path d="M6605 4541 c-72 -30 -94 -137 -40 -195 91 -98 253 5 201 128 -25 60
-101 91 -161 67z"/>
<path d="M6820 3725 c-25 -30 15 -70 45 -45 19 16 19 25 -1 44 -19 20 -28 20
-44 1z"/>
<path d="M6543 3690 c-52 -21 -31 -110 26 -110 55 0 80 61 41 100 -22 22 -33
23 -67 10z"/>
<path d="M6750 3605 c-17 -21 -4 -65 19 -65 34 0 51 12 51 36 0 13 -9 28 -19
34 -26 14 -36 13 -51 -5z"/>
<path d="M6640 3486 c-27 -33 18 -72 48 -42 13 13 14 20 6 34 -15 23 -38 26
-54 8z"/>
<path d="M6760 3429 c-8 -15 -7 -21 4 -25 19 -7 36 3 36 21 0 22 -29 26 -40 4z"/>
<path d="M6503 3433 c-18 -7 -16 -38 2 -53 18 -15 45 2 45 30 0 14 -23 34 -33
29 -1 0 -8 -3 -14 -6z"/>
<path d="M6592 3431 c-20 -12 -10 -46 14 -49 25 -4 40 24 23 44 -13 16 -19 17
-37 5z"/>
<path d="M6522 3294 c-42 -29 -17 -82 32 -70 25 6 42 38 31 56 -14 23 -42 29
-63 14z"/>
<path d="M6427 3273 c-13 -12 -7 -41 10 -47 23 -9 47 22 32 41 -12 14 -32 17
-42 6z"/>
<path d="M6462 3184 c-42 -29 -23 -93 31 -101 51 -8 78 71 35 101 -12 9 -27
16 -33 16 -6 0 -21 -7 -33 -16z"/>
<path d="M6352 3138 c-24 -24 -9 -54 22 -42 19 7 21 28 3 43 -10 8 -17 7 -25
-1z"/>
<path d="M6248 3129 c-25 -14 -24 -65 1 -79 27 -14 47 -13 65 6 44 44 -12 105
-66 73z"/>
<path d="M6158 3059 c-33 -19 -16 -79 22 -79 33 0 59 41 42 67 -11 17 -46 23
-64 12z"/>
<path d="M4203 1063 c-7 -2 -13 -14 -13 -26 0 -13 -9 -26 -22 -32 -32 -14 -36
-60 -8 -75 11 -6 30 -8 40 -5 20 6 37 46 26 63 -3 6 1 12 9 16 20 7 19 52 -1
60 -9 3 -16 6 -17 5 -1 0 -8 -3 -14 -6z"/>
<path d="M4082 888 c-27 -27 -7 -78 29 -78 21 0 49 26 49 45 0 35 -53 58 -78
33z"/>
<path d="M4149 793 c0 -5 -2 -16 -4 -26 -2 -11 5 -19 22 -23 30 -8 46 11 32
38 -9 17 -48 26 -50 11z"/>
<path d="M4157 703 c-12 -11 -7 -33 8 -39 20 -8 45 13 38 32 -5 14 -34 19 -46
7z"/>
<path d="M3999 619 c-10 -20 -9 -25 11 -41 26 -21 39 -20 54 5 8 12 8 22 0 35
-17 26 -51 27 -65 1z"/>
<path d="M4163 520 c-30 -12 -38 -46 -19 -75 21 -32 60 -33 80 -3 22 31 20 54
-6 72 -25 18 -25 18 -55 6z"/>
<path d="M4013 433 c-17 -6 -16 -38 1 -52 30 -25 67 16 40 44 -16 16 -21 17
-41 8z"/>
<path d="M3916 341 c-23 -26 -6 -61 30 -61 33 0 49 37 26 63 -20 22 -35 22
-56 -2z"/>
<path d="M3179 224 c-9 -11 -10 -20 -3 -32 14 -22 27 -24 48 -9 15 11 17 17 7
35 -14 26 -33 28 -52 6z"/>
<path d="M3978 219 c-24 -14 -23 -46 3 -59 37 -20 67 28 37 58 -14 14 -18 14
-40 1z"/>
<path d="M3565 177 c-22 -17 -14 -47 14 -47 24 0 36 29 18 47 -11 11 -16 11
-32 0z"/>
<path d="M3475 144 c-21 -21 -19 -40 7 -58 30 -21 60 -4 56 31 -4 33 -41 49
-63 27z"/>
<path d="M3896 123 c-4 -9 0 -23 8 -31 12 -13 18 -13 30 -2 20 16 20 36 0 44
-24 9 -31 7 -38 -11z"/>
<path d="M3253 109 c-45 -17 -32 -89 17 -89 30 0 52 34 41 62 -11 30 -28 38
-58 27z"/>
<path d="M3652 109 c-33 -12 -47 -56 -27 -85 18 -27 65 -33 85 -10 8 11 18 12
34 6 13 -5 29 -4 40 2 13 7 22 5 35 -6 23 -21 47 -20 70 3 44 44 -13 110 -65
76 -13 -8 -24 -11 -24 -6 0 15 -41 20 -61 8 -14 -8 -22 -9 -27 -1 -11 17 -35
22 -60 13z"/>
<path d="M3350 55 c-11 -13 -11 -19 3 -32 21 -21 49 -9 45 19 -4 28 -30 35
-48 13z"/>
</g>
</svg>
