<svg data-name="Layer 1" xmlns="http://www.w3.org/2000/svg" viewBox="0 0 512 512"><defs><linearGradient id="b" x1="256" y1="318.96" x2="256" y2="91.9" gradientUnits="userSpaceOnUse"><stop offset="0"/><stop offset="1" stop-color="#a6a6a6"/></linearGradient><linearGradient id="c" x1="256" y1="299.82" x2="256" y2="202.7" gradientUnits="userSpaceOnUse"><stop offset="0" stop-color="#bbbdbf"/><stop offset=".68" stop-color="#f5f5f6"/><stop offset="1" stop-color="#fff"/></linearGradient><radialGradient id="a" cx="256" cy="256" r="349.6" gradientUnits="userSpaceOnUse"><stop offset="0" stop-color="#231f20"/><stop offset=".36" stop-color="#292627"/><stop offset=".71" stop-color="#87898b"/><stop offset="1" stop-color="#929497"/></radialGradient></defs><path d="M303.33 250.89a59.78 59.78 0 00-1.67-14.06l1.67 14.06zm23.54 0L184.3 192.83a83.06 83.06 0 01142.57 58.06zm-161.26 28.22l161.26-28.22a83.08 83.08 0 01-161.26 28.22zm150.18-28.22l-131.18-41.07a72 72 0 01131.19 41.06zm-140.1 23.51v.14-.14zm.59 1.64l139.52-25.15A72 72 0 01176.28 276zM300.91 234q-.75-2.52-1.7-5l1.7 5zm-2.72-7.37c-.66-1.5-1.4-3-2.18-4.4l2.18 4.4zm-14.81-20.25c-.82-.74-1.68-1.46-2.56-2.15l2.56 2.15zM267.14 196a60.94 60.94 0 00-6.44-2.31l6.44 2.31zm-15.35-4.21c-1.12-.15-2.26-.28-3.41-.37l3.41.37zm-8.65-.55a59.61 59.61 0 00-56.88 44.16l56.88-44.16zm-58.74 55c-.08 1.1-.14 2.21-.16 3.31l.16-3.31zm3.47 25.17c.34.92.7 1.84 1.07 2.74l-1.07-2.74zM251.69 310a59.05 59.05 0 0011.06-2.56L251.69 310zm21-6.94c1.22-.68 2.4-1.41 3.58-2.16l-3.61 2.1zm6.37-4.1c1-.78 2.08-1.58 3.07-2.43l-3.13 2.39zm20.84-28l.47-1.34-.47 1.34zm2.12-7.43l1.34-12.63a60 60 0 01-1.36 12.62zm26.68-53.65a12.15 12.15 0 003.54-1 12 12 0 005.61-15.88 12.44 12.44 0 00-1.86-2.76c.14-5.45-2.82-9.42-5.17-12.63 5.13-1.69 12.84-5 27.18-3.28 0-5.14-1-10.49-6.11-14 6.71-3.12 18.79-4.67 25.71 10.7 2.89-8.46-1.76-17.17-8.29-23.46 9.5-1.51 37.59 2.34 51.44 24.72 7.27 11.9 7.58 28.25-3.41 36.45-6 4.43-11.38 2.43-14.49.13-2.42-1.86-3-11.73 7.18-6.14.75-10.69-6.32-13.54-11.44-10.87s-9.46 12.57-.74 25.27 35.68 11.21 41.71-21C444.72 214 442.23 239 415 250.92c5.83 6.47 17.72 10.45 27.33-.58-7.62 16.89-25.39 18.54-35.85 21.15 4.08 7.86 11.83 9.87 19.77 8.71-8.58 5.12-19.82 10.16-33 8.07 2.22 6.32 2.68 6.72 7.8 9.1-3.43 1.71-19.32 3-32-.1s-22.4-15.75-16.79-27.76c2.7-5.7 15.41-14.54 19.23 3.67 11.29-7 7.85-19.84-4.67-23.29 9.69-1.37 22.91-2.18 25.46-21.21 1-8.27-.5-18.75-3.21-27-3.55-10.65-10.31-18.48-17.1-18.8-12-.47-14.25 8.43-9.74 15.73 4.85-2.4 15.75-5.68 14.71 3.23s-7.13 9.26-17.92 13.09c-4.65-9.89-9.67-11.7-21.88-8.89 6-1.22 11.78 6.21 7.34 14.27-3.93 7.18-14.35 14.63-17.91 24.89a47.1 47.1 0 001.77 34 48 48 0 004 6.94c-.33 5.38-3.24 11.57-6.77 17.7-1 .44-1.89.89-2.82 1.37-.86-7.71 6.38-14.23 6.9-21.28a3.54 3.54 0 00-4.41-3.61c-2.44.67-6.28 4.84-8.44 3.47-4.69-3.08-5.65-14.21-14.59-13.31a9 9 0 00-2.32.46c-6.52 2.31-6 11.72-9.74 15.12-1.84 1.79-6.39-1.6-8.91-1.86a3.42 3.42 0 00-3.64 4.23c.7 2.88 2.58 5.46 4.53 8.06 3.14 4.17 6.49 8.4 5.82 13.87L279 298.92l-3.46-4.45c-1.57-4-1.88-7.91 0-11.45a9.94 9.94 0 01-6.46 2.21c-7.36-11.52-14.65-25.16-10.9-38.85 1.92-6.68 6.43-12.13 12.09-16.12l.7.59a28.21 28.21 0 00-2.85 11.86c-.32 6.64 1.12 14 5.84 19.69 4.69 5.92 12.65 8.74 20.19 8.41a26 26 0 006.16-1.21 29.13 29.13 0 0014-10.17c5-5.93 5.38-16.18-.39-21.42-2.55-2.35-5.7-4.88-9.68-4.76a8 8 0 00-3.39.73 11.36 11.36 0 00-5 4.83c-3.31 5.4-2.31 14 3.65 15.26-7.68-3.52-3.78-14.45 2.13-17.24 2.7-1.27 5.8-.86 8.43 2.7 8.46 7.22 1.67 19.22-8.1 24a21.38 21.38 0 01-4.46 1.6c-6.26 1.51-13.57.09-18.17-4-4.8-4.1-7.12-10.59-7.45-16.71a29 29 0 014.12-17.54l.6-.31a13.4 13.4 0 0025.44-6.63 13.9 13.9 0 00-.55-3.07l3.13-.92c2.61.33 5.15.55 7.6.67a10.37 10.37 0 1017.72-5.62 62.07 62.07 0 0010.9-.46l1.17-3.45a68 68 0 01-13 3.1l-.38-.3zM145.15 447.09a14.3 14.3 0 00-14.3-14.31 14.3 14.3 0 00-14.3 14.31 14.3 14.3 0 0014.3 14.3 14.3 14.3 0 0014.3-14.3zm-2.13 0a12.19 12.19 0 01-12.17 12.17 12.19 12.19 0 01-12.17-12.17 12.18 12.18 0 0112.17-12.18A12.19 12.19 0 01143 447.09zm4.54 0a16.73 16.73 0 01-16.71 16.72 16.72 16.72 0 01-16.71-16.72 16.72 16.72 0 0116.71-16.73 16.73 16.73 0 0116.71 16.73zm-1.42 0a15.3 15.3 0 01-15.29 15.3 15.31 15.31 0 01-15.3-15.3 15.31 15.31 0 0115.3-15.31 15.3 15.3 0 0115.29 15.31zm12 0a27.22 27.22 0 01-27.24 27.26 27.23 27.23 0 01-27.24-27.26 27.22 27.22 0 0127.24-27.27 27.22 27.22 0 0127.24 27.27zm-4 0a23.25 23.25 0 01-23.22 23.24 23.26 23.26 0 01-23.23-23.24 23.26 23.26 0 0123.23-23.25 23.25 23.25 0 0123.22 23.25zm-23.22 31.26a31.25 31.25 0 01-31.24-31.26 31.34 31.34 0 012.12-11.36c-8.64-19.46-11.8-60.84 8.25-72.35 11.72-6.29 23.7-5.59 28 1.46 3.63 5.51 12.08 18.56 16.22 36.07-6.68-27.11-7.73-40.39 1.11-46.56C163 349 173 345.1 182.59 348l1.34-3.84v-.06c.21 1.58.5 3.13.82 4.71a28.79 28.79 0 0111.75 9.77c8.05 10.92 10 20.87 14.15 29.71a95.53 95.53 0 0012.83 7.1c8.68 4.1 18.21 7.36 27.52 11.52 13.08-4.08 28.2 1.22 38.34 7.08-9.93-5.06-23.83-8.77-35.36-5.79a103.59 103.59 0 0119.73 11.91c7.75 6.11 14.08 15.3 16.11 25.53 1 5 1.36 10.71-1 16.2-1.3 3.09-3.88 5.23-6.74 6.85.94 5.57-1.58 12.21-6.67 15.09-5.19 3.19-11.13 3.07-16.27 1.89-10.67-2.15-18.28-11.33-21.79-20.34-6.62-17.36-9.72-39.83 4.48-53 1.19-.88 2.79-1.75 3.94-2.53-6.42-2.89-13.42-5.62-19.71-8.59a112.22 112.22 0 01-11.35-5.88 36.31 36.31 0 007.92 7.92 32.45 32.45 0 00-20 .43c5.18 8.08 10.08 16.77 12.33 27.21 3 13-1.4 26.78-9.16 36.46-3.95 4.67-10.06 9.43-17.31 8.14-6.64-1.49-10.56-6.49-13.49-11.35-.33.7-.67 1.37-1 2a63.86 63.86 0 01-13.61-8.73 31.3 31.3 0 01-29.5 20.94zm3.5-62.35c-.06-.38-.11-.74-.13-1.09L134 416h.33zm-3.5 61.4a30.32 30.32 0 01-30.3-30.32 30.33 30.33 0 0130.3-30.32 30.3 30.3 0 0130.29 30.32 30.3 30.3 0 01-30.29 30.32zm260.22-105.08a34.41 34.41 0 00-34.4-34.43 34.41 34.41 0 00-34.39 34.43 34.4 34.4 0 0034.39 34.43 34.4 34.4 0 0034.4-34.43zm-5.12 0a29.33 29.33 0 01-29.29 29.31 29.31 29.31 0 01-29.28-29.31A29.3 29.3 0 01356.74 343 29.31 29.31 0 01386 372.32zm10.93 0a40.23 40.23 0 00-40.21-40.25 40.22 40.22 0 00-40.21 40.25 40.19 40.19 0 0040.21 40.24 40.2 40.2 0 0040.21-40.24zm-3.42 0a36.83 36.83 0 01-36.8 36.83 36.85 36.85 0 01-36.8-36.83 36.82 36.82 0 0136.8-36.82 36.82 36.82 0 0136.8 36.82zm28.77 0a65.51 65.51 0 00-65.55-65.6 65.53 65.53 0 00-65.55 65.6 65.53 65.53 0 0065.55 65.6 65.51 65.51 0 0065.55-65.6zm-9.68 0a55.94 55.94 0 00-55.88-55.93 55.93 55.93 0 00-55.87 55.93 55.93 55.93 0 0055.87 55.93 56 56 0 0055.88-55.93zm-91.85-66.09a31 31 0 00-11.65-2.78c-3.67-9-3.75-25.42-6.07-25.63-2.34.65.43 16.75-1.6 26.28a30.56 30.56 0 00-13.41 6.4l1.54 2a28.72 28.72 0 0128.42-4.66c.92-.56 1.85-1.09 2.79-1.61zm-11.83 8a15.92 15.92 0 01-1.29-4.22 28.13 28.13 0 00-3.91.39 19.78 19.78 0 01-.31 3.3 16.43 16.43 0 01-18.85 12.93 19.68 19.68 0 00-1.09 4.58 12.86 12.86 0 013 1.31 16.5 16.5 0 014.4 3.49 75.76 75.76 0 0112.69-16.89q2.58-2.56 5.36-4.89zm-24.41 37.17a28.93 28.93 0 01-4.38-24.19 57.103 57.103 0 01-3.7 3.91l.3.17a31.34 31.34 0 002.06 14.82l-.09.11c-8.17-3.91-16.49 3.62-24.09 3.12a3.55 3.55 0 01-3.16-2.76c-12.64 4.83-24.86 6.1-31.23 4.83 16.3 7.59 20.85 23.9 19.52 34.74-5.33 2.52-14.91 3.44-25.59 2.59l-.63-1.54-1.18-2.42-1.17-2.78-1-2.75-1.09-3-1.09-3-1.41-3.16-1.41-3.15-1.73-3.31-2.13-3.32-2.46-3.49-2.61-3.16-2.7-2.62-2.87-2.28-1.83-1.16a15 15 0 017.51 3.88c-3.08-11.7-28.88-18.12-25.62-8.76a3.37 3.37 0 001.19 1.62l-2.42.38-2.82.77-2.91.93c1.2-6.26 4.39-10.89 9.31-12.19 6.29-2 21.14-6.51 39.13-5.73-28-.89-41-3.55-44.61-13.88-4.5-13.25-4.54-30.87 15.33-38.43a60.36 60.36 0 016-2c17.23-4.69 29.75-.06 43.9-11-11.48 19.17 2.81 27.54-12.14 40.88a93 93 0 0115.84 1.64 2.43 2.43 0 011.61-1.12 2.4 2.4 0 012.83 1.82v.28a96 96 0 0110.7 3.31c2 .75 4 1.55 5.86 2.38a11.21 11.21 0 004.57-1.85c.76-.64.83-1.79.62-3.09-.33-2-1.31-4.49-1.27-6a3.47 3.47 0 014.73-3 20.59 20.59 0 016.45 4.65c4.05 3.94 7.92 8.64 14 8.65l-.08.11a30.79 30.79 0 00-8.1 12c-.6 0-1.22.06-1.86.07 1.29 1.06 2.46 2.13 3.54 3.17a28.38 28.38 0 017.76-13.09c.34-.33.7-.66 1.06-1l-8.22-7.42c-1.53-1.55-3-3.14-4.51-4.74-.76-.83-1.54-1.65-2.28-2.49-4.27-3-8.63-4.34-12.95-2.78a9 9 0 003-5.36 8.86 8.86 0 00-.24-4.61c-1.65-2.39-3.22-4.83-4.66-7.36-5.59-9.56-10.35-22.22-7.07-33.62a32.69 32.69 0 015.38-10.78 35.19 35.19 0 01-10.11 2.2c-7.94.7-19.11-1.49-24-11.28-2.27-4.31-2.36-10.1.75-14.12a12.68 12.68 0 0112.57-4.76c10.13 2.2 9.47 16.78 1.6 17.39 7.4-3 3.87-14.17-3.17-13.74-7.1-.32-11.34 8.59-6 14.88 7.34 8.75 21.33 9.61 31.45 5.9a43.18 43.18 0 0111.84-8.13c.5-1.3 1-2.58 1.61-3.88a11.7 11.7 0 01-14-17.54 10.4 10.4 0 011-1.23 86.34 86.34 0 01-4.91-3.81 81.272 81.272 0 01-4.28-3.89l-1-1a14.25 14.25 0 01-2.45.58 15.81 15.81 0 01-5.24-.18 19.63 19.63 0 01-13.27-9.67 31.79 31.79 0 01-3.41-26c.29-.83.63-1.62 1-2.43a28.52 28.52 0 00-14-11.81c-1 1.24-1.74 2.46-1.29 3.58 2.2 5.89 14.27 9.48 11.24 19.19-2.82 9.76-14.87 6.06-20.06 9.69-2.36 1.69.39 7.47.07 10.3a4 4 0 01-5.62 3.11c-7.84-3.86-11.66-15.84-21.91-16.61v-.1a34.71 34.71 0 0010.08-13c10.93-.05 28.17 6.77 29.37 4.43.31-2.73-17.7-6.59-26.82-12.73a34.73 34.73 0 00-1.06-16.76l-2.73.78a32.41 32.41 0 01-37.46 41.48q1.3 1.61 2.45 3.34l1 .09c.34 1 .67 2 .94 3.13a47.78 47.78 0 016 20.41c.3-6.4-.09-16.8 1.73-23.75a34.88 34.88 0 0015.52-6.7h.11c-1.64 8.57 5.77 14.73 9.13 21.54a15.65 15.65 0 011.36 3.84 3.88 3.88 0 01-3.43 4.68 74.86 74.86 0 012.38 8.47 86.27 86.27 0 011.65 25.63 61.64 61.64 0 01-1.85 10.83 29.69 29.69 0 01-1.89 5.19c.56-.66 1.14-1.28 1.73-1.87A33.38 33.38 0 01213 240a31.13 31.13 0 018 2.2c1.06 5.8-.74 15.2-4.48 25.21l-1.61.38-2.73.21-2.82.36-3 .29-3.13.21-3.23.37-3.22.36-3.55.6-1.79.37-1.83.4-1.8.52-2 .57-4 1.4-3.79 1.48-1.74 1.07-1.38.83-3 2.3-1.55 1.43a14.88 14.88 0 015.38-6.07l.24-.14h-.28c-3.47.07-7 2-10.08 4.71-7.46 6.65-11.94 17.91-4.92 17.54a2.83 2.83 0 001.86-.86l-.35 2.64-.11 3 .28 3c-5.76-3-9.24-7.19-9.26-12.25 0-6.68-.55-22.13 5-39.28-8.28 26.68-14.36 38.52-25.22 39.2a32.44 32.44 0 01-6.19-.15l2.3-3.9 2-5 1-5.54-.33-5.63-1.39-5.56-2.11-5.34-2.91-5.34-2.92-4.33c-1 .28-2.09.52-3.15.73 7.38 9.68 11.66 20.43 8.81 30.09-4.17 12.83-13.26 20.68-21.19 18.42-6.49-1.53-21.57-4.83-36.64-14.83 23.61 15 33.64 23.8 31.42 34.39-2.9 13.88-11.67 29-32.69 25.44-21.67-3.5-29.9-16.65-49.84-13.99 19.9-10.78 11.79-25.28 31.36-29.16-22.9-14-35.83-35.66-39.6-49.94 18.6-6.45 39.36-2.71 52.65 2.78-8.24-14.72-7.46-34.09-20-46.29A30 30 0 0021 200.51c-8.79 0-10.12 9.81-6.83 16.54 3.59 6.16 10 13.65 16.88 11 7.77-2 1.76-16-5.2-10.7 2.72-2.67 7.79-1.33 9.27 2.58 2.11 3.43.25 9.14-4.34 10.17-4.1 1.84-9.1-.48-12.21-3.25a27.8 27.8 0 01-8.25-10.48c-1.32-4.39-2.34-9.52.44-14.36 3.08-4.88 9-5.9 13.81-5.74 9.68.6 19.94 5.28 25.88 13.88C61.64 226 59.91 245 69.09 257.84a36.2 36.2 0 014.55 2.9 33.35 33.35 0 01-2.08-4.74 33.71 33.71 0 01-1.37-23.65l.08-.44a47.82 47.82 0 01-8.35-27.06c0-1.08.06-2.16.12-3.25-8.59-4.52-15.31-13.68-19.77-22.52-3.35-6.76-4.64-16-.28-23.29 2-3.6 5.09-7.1 9.65-8.42 4.34-1.43 9.5.6 12.22 4.08a11.53 11.53 0 017.5-.28c4.4 1.53 7.46 4.74 9.87 8a31 31 0 013.07 5.13l.57-.36c.19-3.94 3.13-6.92 6-9.68a2.67 2.67 0 012.81-4.53 2.37 2.37 0 01.8.68 8.53 8.53 0 001.31-2.46c.95-2.71-4.68-5.82-6.15-8.25a4 4 0 012.72-5.81c8.55-1.58 18.83 5.74 27.49.21v.09a36.15 36.15 0 00-.35 16.45 61.12 61.12 0 01-11.5 6.21h1.84a47.91 47.91 0 0116.22 2.82 32.37 32.37 0 01-2.2-4.44 32.36 32.36 0 1160-24.26c.21.51.4 1 .58 1.53l11.28-5.5c3.42-1.44 6.9-2.8 10.4-4.07 4.9-3.22 8.2-7.21 8.38-12.4a10.08 10.08 0 004.33 5.43 9.89 9.89 0 004 1.59c-.65-6.37-2.26-14.79-6.19-20.92a3.18 3.18 0 01-.57-.05 3.11 3.11 0 01-2.51-3.7c-3.37-3.23-7.91-5-14-4 2.57 4.54 1.58 8.06-.85 9.44-.49 2.65-.91 5.16-.28 7.19.87 2.75 7.22 2 9.79 3.16a3.92 3.92 0 011.17 6.22c-6 6.35-18.66 6.3-22.52 15.87l-.09-.13a34.73 34.73 0 00-9.2-13.55c2.5-8 10-18.23 12.57-23.46a6.14 6.14 0 01.36-3.23c-2.84.06-11.76 15.2-20 21.69a35.21 35.21 0 00-16.36-4.09l-.09-.12c5.06-4.66 4.75-11.54 5.13-17.92A29.61 29.61 0 01145.41 84c2.4 7.65 0 17.93 7 23.82l-.12.08a35.24 35.24 0 00-15.77 4.61c-9-6.43-18.82-22.14-21.2-20.88-1.86 1.9 10.5 15.73 14.21 26.08a33.89 33.89 0 00-9 14.15l-.12.09c-4.21-9.38-16.84-8.89-23.09-14.91a3.83 3.83 0 011-6.24c2.5-1.35 8.83-.79 9.67-3.52 1.59-6.13-6-16.27 2.19-22.21 8-6.18 15.56 3.83 22 4 2.79 0 4.08-6.19 6-8.4a3.84 3.84 0 012.58-1.15 29.82 29.82 0 01-7-19.22 29.93 29.93 0 0129.92-29.94 29.92 29.92 0 0129.91 29.94 29.89 29.89 0 01-2.8 12.7 3.44 3.44 0 012.36-.39 3.38 3.38 0 012.5 2.1 3.94 3.94 0 013.68-1.35 4 4 0 11-1.51 7.64 3.9 3.9 0 01-2.95-2.68 3.33 3.33 0 01-3.06 1 3.4 3.4 0 01-2.81-3.18 30.44 30.44 0 01-14.36 12c6-1.3 12.93-10.27 20.7-4.73a12.15 12.15 0 011.18.91c2.69-1.67 5.77-2.78 8.44-2.46a34.63 34.63 0 014.4.9 2.81 2.81 0 010-1 2.73 2.73 0 013.21-2.18 2.7 2.7 0 012.07 3.19 2.81 2.81 0 01-.88 1.59c2.86 1.37 4.82 3.14 5.72 5.09-2-10.35 3.83-17.3 8.84-14.58s2.76 11.17-2.7 9a7.63 7.63 0 00.35 5.91h.3a2.38 2.38 0 011.92 2.83v.05a9.9 9.9 0 001.58 1.14q1.55-2.95 3.34-5.83a4 4 0 01-.46-1.23c-1 1.26-2 2.52-3.06 3.82.89-1.17 1.91-2.57 3-4.15a4 4 0 012.91-4.4c8.09-12.73 18-32.38 15.42-45.56-2.51-12.77-13.74-16.35-23-12.94a8 8 0 015.5 2 8 8 0 01-10.58 12 7.89 7.89 0 01-1.67-9.87l-.3.28c10.22-20.09 41.61-25.77 40 2.41 4.79-9 10.86-9.07 16.91-6.36-10.57 4.26-2.83 19-15.28 30.68q-4.44 4-9.14 8.81c10-9.33 21.56-16.67 33.16-20.08C312 36 338.55 45.22 353.73 56.23c11.5 8.3 15.1 16 26.53 9.34 3.52 8.26-2.94 19.41-14.11 18.66 5.6 9.62 11.74 32.22 3.19 51 2 0 4.05 0 6.06.06l1.18.07c13.2-1.6 25.46-12.09 29.34-29.2 9.24 12.67 6.55 27.48-5.8 33.14a97.59 97.59 0 0115.59 5.86l-.46-.22c12.86 3.95 36.88 8.32 41.47-11.82-6.27.83-9.56-2.15-9.55-5.57.19-7.15 9-8.37 12.41-3.85 3 4.1 4.93 12.95 2.15 18-4.33 7.54-9.64 11.78-14.07 12 11.68 2.23 16.48 11.3 11.53 15.39s-12.84-1.8-8.28-6.61c-3.54-3.12-8.62-2.64-12.17.15 18.31 21.7 31.47 54.15 28.93 80.67-3 29.88-23.85 53.78-41.74 65.05-7.06 4.47-13 6.75-16.84 10l.81.8a75.59 75.59 0 018.4 10 25.1 25.1 0 0112.5-3.31 25.33 25.33 0 0125.31 25.33 25.33 25.33 0 01-24.31 25.31 75.19 75.19 0 01-75.06 71.08 74.93 74.93 0 01-53.15-22l-1.3-1.37A4.16 4.16 0 11297 418a75.29 75.29 0 01-13.37-28.15c-2.77 1.46-5.76 2.15-9.08 0-7.73-4.56-2-14.06-4-19.38-.92-2.29-6.44-1.3-8.88-2.15a3.51 3.51 0 01-1.36-5.44c5-5.93 16.18-6.7 19-15.33l.11.07a30.85 30.85 0 004.33 6.84c.25-1 .52-2.05.82-3.06zm120.9-36.4l.16-.15.9-.79.88-.69.88-.7 1-.56 1-.57 1-.67 1.07-.55 1-.57 1.06-.54 1.06-.55 1.08-.54 1.08-.65 1.09-.65 1.19-.63 1.08-.65 1.19-.64 1.21-.73 1.61-1.08 1.59-1.1 1.63-1.19 1.61-1.18 1.54-1.31 1.66-1.4 1.67-1.4 1.57-1.53 1.57-1.52 1.6-1.63 1.61-1.73 1.51-1.74 1.51-1.75 1.54-1.85 1.43-1.87 1.45-2 1.34-2 1.26-2.12 1.34-2 1.18-2.24 1.16-2.14 1.07-2.26 1.07-2.27 1-2.28.88-2.41.88-2.4.68-2.45.68-2.45.58-2.46.5-2.58.36-2.5.29-2.63.25-2.42.02-2.28-.06-2.47-.05-2.58-.16-2.51-.27-2.52-.26-2.62-.48-2.56-.45-2.66-.48-2.56-.67-2.7-.69-2.6-.78-2.62-.88-2.64-.89-2.63-.89-2.64-1.12-2.58-1-2.65-1.22-2.59-1.13-2.47-1.35-2.51-1.24-2.49-1.35-2.51-1.47-2.42-1.38-2.3-1.49-2.32-1.58-2.34-1.53-2.12-1.61-2.24-1.65-2-1.65-2-1.77-2.15-1.06-1.17-1.17-1.19-1.27-1.21-1.27-1.2-1.39-1.13-1.39-1.1-1.51-1-1.53-1-1.61-1.06-1.63-1-1.62-1.07-1.76-.87-1.77-.87-1.86-.89-1.77-.88-1.88-.78-2-.82-1.91-.69-2-.7-2-.59-2-.61-2.13-.62-2-.5-2.15-.51-2.17-.41-2.18-.42-2.06-.39-2.18-.31-2.32-.23-2.22-.2-2.21-.21-2.22-.1h-1.71l-1.7-.1H370l-1.73.1h-1.62c-.64 1-1.31 2-2.05 3l5.07-.75 1.3-.08 1.3-.07 1.4-.05 1.49.07 1.58.09 1.6.09 1.67.21 1.79.23 1.78.23 1.86.35 1.84.46 2 .37 1.93.58 1.92.58 2 .7 2 .81 2.1.83 2 .91 2.06 1 2.05 1 2 1.24 2 1.24 1.86 1.43 2 1.46 1.85 1.52 1.81 1.74 1.79 1.85 1.68 1.82 1.65 2 1.61 2.23 1.51 2.22.7 1.31.72 1.32.7 1.32.6 1.39.5 1.28.6 1.4.36 1.46.49 1.38.23 1.56.27 1.43.26 1.44.15 1.43.14 1.53.05 1.41v2.88l-.08 1.49-.27 1.45-.16 1.47-.39 1.43-.36 1.32-.48 1.41-.48 1.41-.67 1.26-.69 1.37-.77 1.24-.88 1.23-.88 1.23-1 1.11-1.19 1.17-1.15 1-1.15 1-.76.61-.72.4-.74.5-.81.38-.7.3-.71.39-.81.27-.68.19-.78.18-.79.16-.67.2-.77.07h-.74l-.66.08h-1.49l-.62-.12-.62-.12-.72-.14-.63-.11-.6-.22-.52-.09-.59-.23-.6-.22-.47-.3-.51-.2-.47-.31-.31-.06.08.13.71.77.61.76.73.67.84.59.86.59 1 .51 1 .4 1 .4 1.15.21 1.13.22 1.15.11h2.36l1.32-.18 1.28-.5 1.24-.3 1.28-.52 1.17-.52L422 217l1.24-.84 1.14-1 1.17-1.06 1.18-1.18 1.11-1.29 1-1.51 1.06-1.62 1-1.75.91-2 .84-2.2.76-2.32.68-2.45 4.83-23.09 5.92 21.82.39 1.9.39 1.9.37 2 .27 2 .27 2 .15 2.07v2l-.09 2.12-.08 2.13-.2 2.11-.19 2.11-.38 2.06-.42 2.18-.61 2-.62 2.14-.72 2.11-.93 2.07-.93 2.08-1.15 2-1.22 1.91-1.34 2-1.53 1.86-1.63 1.83-1.7 1.91-1.83 1.68-2 1.66-2.17 1.66-2.32 1.48-.12.09.6.21.62.12.62.12.73.14.62.12h1.28l.65-.09.57-.11.65-.09.69-.19.67-.2.69-.19.7-.29.62-.42.71-.4.74-.5.76-.61.65-.63.78-.7 23.61-25.52L446 254.15l-.87 1.76-1 1.52L443 259l-1.12 1.39-1.22 1.37-1.19 1.24-1.19 1.17-1.26 1-1.37 1-1.36.92-1.29.91-1.44.8-1.34.82-1.39.59-1.43.7-1.37.48-1.39.59-1.38.49-1.37.39-1.36.38-1.36.39-1.26.41-1.33.28h-.34l.5.21.39.19.5.19.52.1.51.1.52.09.52.1.52.09h.53l.52.1h1.17l.65-.09h1.19l.65-.09 24.61-3.31-21.63 12.9-.84.49-.87.58-.94.46-1 .46-1 .57-1 .46-.94.45-1 .45-1 .45-1.06.45-1 .44-1 .45-1.13.31-1 .45-1.13.33-1.13.32-1.24.31-1.13.31-1.22.21-1.23.29-1.22.2-1.3.08 8.54 4.1-10.43 4.65-.68.2-.8.27-.67.21-.79.17-.79.17-.88.15-.88.15-.86.05-1 .14-1 .13-1.08.11h-1.08L391 304h-1.18l-1.19.09h-.09l1.33.64 9.69-1.23-2.36 5.36a76.37 76.37 0 018.29 6.14zm-48.58-17.92l-.7-.46-1.12-1-1-.83-1-1-1-1-.88-1-.86-1.12-.86-1.12-.63-1.19-.73-1.21-.62-1.3-.5-1.28-.41-1.25-.38-1.37-.26-1.44-.16-1.43-.15-1.42-.06-1.41.18-1.47.17-1.47.27-1.44.39-1.54.49-1.41.69-1.37.38-.88.5-.88.57-.74.57-.76.7-.83.67-.73.77-.71.76-.6.77-.71.87-.58 1-.57 1-.57.94-.46 1.16-.42 1-.33 1.22-.2 1.22-.21h2.56l1.32.37 1.32.35 1.27.67 1.14.76 1.1 1 1.08 1.06.86 1.13.67 1v-.1l.07-.41.1-.52v-.87l-.12-.45-.14-.45-.12-.46-.23-.47-.23-.47-.34-.49-.34-.39-.34-.5-.46-.4-.56-.44-.46-.4-.66-.45-.66-.45-.69-.34-.79-.36-.81-.27-22.27-6.83 23-3.32.87-.05 1-.13.88-.15.88-.15 1-.13.88-.15.9-.26.79-.17.9-.26.78-.17.81-.27.81-.28.69-.29.72-.4.72-.39.7-.3.63-.52.62-.41.53-.55.53-.54.55-.64.55-.64.47-.76.46-.77.49-.88.4-1 .43-1.11.33-1.22.34-1.22.28-1.45.27-1.44v-1.39l.15-.72v-2.24l-.08-.76v-.75l-.07-.76.05-.85-.07-.76-.07-.76v-.87l-.08-.77-.15-.88-.08-.76.1-.9-.15-.88-.17-.78-.05-.87-.17-.79-.17-.78-.17-.78-.17-.78-.17-.78-.27-.81-.17-.78-.17-.79-.17-.77-.29-.7-.18-.78-.3-.7-.26-.9-.26-.81-.37-.93-.38-.82-.39-.81-.28-.7-.39-.82-.39-.71-.39-.73-.51-.74-.42-.61-.42-.62-.42-.62-.41-.62-.44-.51-.44-.52-.54-.52-.46-.42-.33-.49-.47-.31-.45-.4-.48-.31-.38-.28-.38-.28-.4-.19-.39-.18-.39-.18-.31-.06-.42-.08-.31-.06-.31-.06-.31-.06h-.84l-.76.06-.66.09-.66.09-.55.1-.56.11-.46.12-.36.26-.34.15-.26.17-.24.16-.14.19-.15.19-.12.09-.14.19-.15.18-.06.32v.2l-.15.19-.13.26v.33l-.06.32.05.32v.1h.22l.69-.29.79-.17.78-.18.88-.15.78-.17h.87l.76-.07.87-.05.95.08.85.05 1 .08 1 .3.89.38 1 .41 1 .61.92.81.81.8.65 1.09.45 1.06.43 1.14.21 1.12.2 1.22v1.18l-.12 1.16-.19 1-.2 1-.18.93-.28.92-.3 1-.38.88-.47.77-.49.88-.57.75-.57.75-.66.63-.65.63-.66.63-.73.5-.75.51-.71.39-.82.38-.72.4-.8.27-.72.4-.81.27-.8.28-.8.28-.81.27-.81.28-.89.27-.81.27-.93.36-.91.26-.9.26-.93.36-5.16 1.8-2.4-4.86-.4-.71-.29-.7-.43-.61-.31-.6-.33-.5-.33-.49-.35-.39-.35-.39-.38-.28-.27-.27.07.23.14 1 .13 1v2.08l-.09 1-.19 1-.2 1-.32 1.12-.4 1-.4 1-.52 1.08-.47.76-.6.86-.46.76-.58.85-.57.76-.57.75-.68.73-.57.75-.68.73-.68.73-.57.75-.68.73-.67.73-.68.73-.67.73-.57.75-.69.73-.67.73-.57.75-.58.75-.57.76-.58.75-.57.75-.57.76-.45.66-.47.76-.46.77-.37.79-.33.68-.38.79-.36.79-.24.7-.3 1-.28.9-.29 1-.18.93-.3 1-.17.94-.1 1.06-.2 1-.08 1-.09 1.06-.08 1-.09 1v5.08l.12 1 .14 1 .15.88.14 1 .13 1 .26.91.15.88.26.91.26.9.26.91.38.82.27.81.26.9.39.72.38.82 1 2a10.89 10.89 0 002.18 0 9.65 9.65 0 006.66-4.35c.1.08.21.15.31.14a9.77 9.77 0 00-1 5.81 10.7 10.7 0 004.52 7 11.13 11.13 0 00-5.92.58l.7.7 1.63 1.6 1.85 1.53 1.87 1.43 1.91 1.22 1.91 1.23 2 1.24c1.44-.08 2.88-.12 4.34-.12h.11zm-12.41 1a50.23 50.23 0 01-8.34-7.25c-3.84 3-7.31 7.83-10.52 13a74.77 74.77 0 0118.85-5.74zm87.38 77.62c.05-.82.07-1.65.09-2.48a22 22 0 0020.95-22.06 22.07 22.07 0 00-22.07-22.09 22 22 0 00-10.7 2.76l-1.37-2.07a24.39 24.39 0 0112.06-3.17 24.55 24.55 0 0124.54 24.56 24.54 24.54 0 01-23.51 24.54zm.05-5.74c-.05-1.77-.17-3.52-.34-5.26a13.53 13.53 0 0012.79-13.53 13.54 13.54 0 00-13.53-13.55 13.39 13.39 0 00-6.51 1.66c-.78-1.58-1.61-3.12-2.49-4.64a18.63 18.63 0 019-2.29 18.83 18.83 0 0118.81 18.83A18.83 18.83 0 01431.87 370zm-.48-6.41a12.38 12.38 0 0011.79-12.38 12.41 12.41 0 00-12.39-12.4 12.22 12.22 0 00-6 1.55l.34.74a11.46 11.46 0 015.67-1.48 11.58 11.58 0 0111.57 11.59 11.55 11.55 0 01-11.08 11.57l.1.81zm-.33-2.52a9.87 9.87 0 009.59-9.86 9.88 9.88 0 00-9.86-9.87 9.8 9.8 0 00-5 1.35 74.65 74.65 0 015.27 18.35zm-149.45 13.48c-2.4 4.57-4.28 8.16-3.38 8.92.73.3 2-1.18 3.73-3.49-.18-1.79-.3-3.61-.35-5.43zm75.13 70.77a72.95 72.95 0 0072.89-73 73 73 0 00-72.89-73 73 73 0 00-72.89 73 73 73 0 0072.89 73zm64.78-364.12A10.51 10.51 0 00411 70.62a10.51 10.51 0 00-10.53 10.54A10.52 10.52 0 00411 91.7a10.52 10.52 0 0010.53-10.54zm-1.56 0a9 9 0 00-9-9 9 9 0 00-9 9 9 9 0 009 9 9 9 0 009-9zm3.35 0A12.31 12.31 0 00411 68.84a12.31 12.31 0 00-12.31 12.32A12.31 12.31 0 00411 93.48a12.31 12.31 0 0012.3-12.32zm-1 0A11.26 11.26 0 00411 69.89a11.26 11.26 0 00-11.26 11.27A11.27 11.27 0 00411 92.43a11.27 11.27 0 0011.26-11.27zm8.81 0A20.06 20.06 0 00411 61.08a20.08 20.08 0 00-20.06 20.08A20.08 20.08 0 00411 101.24a20.06 20.06 0 0020.07-20.08zm-3 0A17.12 17.12 0 00411 64a17.12 17.12 0 00-17.1 17.12A17.13 17.13 0 00411 98.28a17.13 17.13 0 0017.1-17.12zm-17.1 23a23 23 0 0023-23 23 23 0 00-23-23 23 23 0 00-23 23 23 23 0 0023 23zm0-.7a22.32 22.32 0 0022.31-22.33A22.32 22.32 0 00411 58.83a22.32 22.32 0 00-22.31 22.33A22.32 22.32 0 00411 103.49zM131.85 204.83a22 22 0 00-22-22 22 22 0 00-22 22 22 22 0 0022 22 22 22 0 0022-22zm-3.27 0a18.72 18.72 0 00-18.69-18.7 18.72 18.72 0 00-18.69 18.7 18.72 18.72 0 0018.69 18.71 18.73 18.73 0 0018.69-18.71zm7 0a25.64 25.64 0 00-25.66-25.67 25.65 25.65 0 00-25.66 25.67 25.68 25.68 0 0025.66 25.69 25.67 25.67 0 0025.66-25.69zm-2.18 0a23.52 23.52 0 00-23.49-23.5 23.52 23.52 0 00-23.48 23.5 23.5 23.5 0 0023.48 23.51 23.5 23.5 0 0023.49-23.51zm18.36 0A41.85 41.85 0 00109.89 163a41.84 41.84 0 00-41.83 41.86 41.82 41.82 0 0041.83 41.87 41.83 41.83 0 0041.84-41.87zm-6.19 0a35.7 35.7 0 00-35.66-35.69 35.71 35.71 0 00-35.66 35.69 35.71 35.71 0 0035.66 35.7 35.7 35.7 0 0035.66-35.7zm-64.84-38.11a25.39 25.39 0 00-7.94-10.05 8.39 8.39 0 00-6.57-1.6 27.44 27.44 0 012.64 8.77c.62 4.82-2.49 11-6.91 12.54-1.68.57-5.88.52-7.65-2.35a12 12 0 01-1.85-7.34 17.58 17.58 0 017.55-13.2 8.44 8.44 0 00-3.09-2.12c-6-2.2-11.63 4.22-13.36 10.37-2.06 6.24.17 13.22 3.33 19.15 3.57 6.66 8.82 13.93 15.4 18A48 48 0 0176 170.87a46.62 46.62 0 014.77-4.15zm29.16 84.67a46.57 46.57 0 0046.53-46.57 46.56 46.56 0 00-46.53-46.56 46.57 46.57 0 00-46.53 46.56 46.58 46.58 0 0046.53 46.57zm67.45-191.17a13.7 13.7 0 00-13.69-13.7A13.7 13.7 0 00150 60.22a13.68 13.68 0 0013.69 13.7 13.68 13.68 0 0013.69-13.7zm-2 0a11.67 11.67 0 00-11.66-11.66A11.66 11.66 0 00152 60.22a11.68 11.68 0 0011.66 11.67 11.69 11.69 0 0011.64-11.67zm4.35 0a16 16 0 00-16-16 16 16 0 00-16 16 16 16 0 0016 16 16 16 0 0016-16zm-1.37 0a14.64 14.64 0 00-14.64-14.66A14.65 14.65 0 00149 60.22a14.66 14.66 0 0014.65 14.66 14.66 14.66 0 0014.64-14.66zm11.45 0a26.14 26.14 0 01-19.33 25.24 6.68 6.68 0 002.06 2.44 29.11 29.11 0 0020.2-27.68 29 29 0 00-29-29 29 29 0 00-29 29 29 29 0 007.3 19.37 3.75 3.75 0 012.35 1.87l.4.81a28.89 28.89 0 0014.47 6.66c.07-1 .18-2 .32-2.91a26.1 26.1 0 01-22-25.8 26.07 26.07 0 0126.09-26.1 26.07 26.07 0 0126.08 26.1zm-3.85 0A22.28 22.28 0 00163.64 38a22.28 22.28 0 00-22.24 22.22 22.3 22.3 0 0019.1 22c.14-.36.27-.73.44-1.07a4 4 0 016.32-1.15 9.44 9.44 0 011.27 2 22.32 22.32 0 0017.35-21.73zm120.41 375.51a2.43 2.43 0 112.06 3 3.3 3.3 0 011 3.28 3.41 3.41 0 11-6.62-1.67 3.34 3.34 0 014.06-2.4 2.43 2.43 0 01-.54-2.27zM292.2 467.3a2.89 2.89 0 112.1 3.52 3 3 0 01-2.1-3.52zm10.08 9.16a4 4 0 113 4.81 4 4 0 01-3-4.81zm-9.75 5.24a2.34 2.34 0 012.89-1.73 2.45 2.45 0 011.84 2.92 2.53 2.53 0 01-3 1.8 2.43 2.43 0 01-1.7-3zm-6.94 6.37a3 3 0 103.64-2.18 3 3 0 00-3.64 2.18zm4.05 9.35a2.69 2.69 0 115.22 1.32 2.69 2.69 0 01-5.22-1.32zm-5 6a2.12 2.12 0 114.12 1 2.12 2.12 0 01-4.12-1zm-6.2 2.79a3.33 3.33 0 00-2.23-1.93 3.36 3.36 0 00-3.86 1.73 4.17 4.17 0 00-7.87.76 4.19 4.19 0 008 2.53 3.43 3.43 0 002.11 1.5 3.28 3.28 0 003.61-1.42 4 4 0 002.75 2.48 3.89 3.89 0 001.89-7.54 3.9 3.9 0 00-4.36 1.87zm-18.74-6.3a2.07 2.07 0 012.51-1.5 2.1 2.1 0 011.6 2.54 2.12 2.12 0 11-4.11-1zm-6.46 3.09a2.95 2.95 0 115.71 1.44 2.95 2.95 0 01-5.71-1.44zm-8.62 5.41a2.27 2.27 0 012.74-1.55 2.23 2.23 0 01-1.09 4.32 2.3 2.3 0 01-1.65-2.77zm-8.83-2.21a3.47 3.47 0 112.46 4.25 3.47 3.47 0 01-2.46-4.25zm-3.78-10a2.49 2.49 0 014.82 1.21 2.49 2.49 0 11-4.82-1.21zM187 448c10.41-1.93 3.71-18-4.32-14.81a91.78 91.78 0 01-5.52 25.81l.08.28c3.53 8.9 14 16.13 21.53 7.78a38.5 38.5 0 0011.44-28.52c-.4-12.41-6.39-22.85-12.83-33.16-5.1 1.5-10 2-17.37-2.88a96.93 96.93 0 012.82 28.43c4.22-.54 8.63 2.21 9.73 6 2.43 4.77-.67 10.72-5.54 11zm88.71 17.32c-1.61-4.57-4.9-8.92-8.62-11.14-3.12-2.06-7.83-2.4-9.24 1.09-2.79 6.46 11.83 14.52 17.86 10zM248.61 411c-17.61 9.77-14.63 32.32-9 48.38 2.87 8.09 7.56 16.22 15.23 19.64 7.3 3.67 18.24 3.85 21.32-3.7a11.1 11.1 0 00.65-4.75 22.53 22.53 0 01-19-4.25 15.28 15.28 0 01-5.33-8.07c-1.19-4.15 2.37-8.17 4.36-9.26 5.3-2.83 13.78-.49 17.82 4.27a35 35 0 016 10.05 10.75 10.75 0 004.16-7.61c1-9.14-2.76-19.17-9-26.19-7.51-8.3-17.12-13.82-27.25-18.51zm-112.9-150.68c1.86 5.81-2.72 26.11 1 26.39 6.1.31 6.34-19.39-1-26.39zM62.48 156.93c-5.75 1.14-8.78 13.83-3.59 15.61 2.76 1 5.05-1.88 5.49-4.77a17.11 17.11 0 00-1.9-10.84zM293.9 427.46a2.53 2.53 0 111.89 3 2.52 2.52 0 01-1.89-3zm3.73 21.23a3.26 3.26 0 002.4 4 3.37 3.37 0 004.12-2.38 3.46 3.46 0 00-2.49-4.15 3.34 3.34 0 00-4 2.5zm5.43 6.4a2.32 2.32 0 012.86-1.63 2.38 2.38 0 011.75 2.79 2.41 2.41 0 01-2.88 1.73 2.35 2.35 0 01-1.73-2.89zm.66 6.26a2 2 0 012.39-1.43 2 2 0 011.43 2.39 2 2 0 01-2.39 1.43 1.91 1.91 0 01-1.43-2.39zM137.21 296.7a29.72 29.72 0 1027.84 31.54 29.83 29.83 0 00-27.84-31.54zM134.7 333a5.17 5.17 0 00-5.44 4.69 5.16 5.16 0 0010.28.84 5.07 5.07 0 00-4.84-5.53zm-13.2-12.47a5 5 0 104.52 5.36 4.94 4.94 0 00-4.52-5.36zm10.81-17.09a6.26 6.26 0 00-6.66 5.88 6.28 6.28 0 1012.54.79 6.29 6.29 0 00-5.87-6.67zm18.34 12.69a5.74 5.74 0 00-6 5.39 5.68 5.68 0 1011.33.78 5.82 5.82 0 00-5.32-6.17zm45.9-20.46c-6.42 5.4-27.73 6.35-27.54 10.7.15 7.16 24.12-1.31 27.53-10.69zm2.33 13.14c-4.94 3.32-25.77 4.52-25 8.15 1.21 5.89 20.25.73 25-8.15zM30.48 426.4c14.87.18 39.13-6.54 58.81-24.73-.49 7.24 1.22 11.36 3.92 14.77V416l-.45-3-.36-3.22-.2-3.14-.2-3.16v-6.45l.19-3.12.28-3.3.36-3.06.6-3.13.67-2.89.92-3 1-2.73 1.15-2.64 1.48-2.48 1.48-2.47 1.72-2.15 2-2 2.19-1.91 2.43-1.58 2.43-1.18 2.34-1 2.26-.86 2.34-.62 1.13-.23c-9.44-4-20.53 3.38-40.6 21.58 13.64-12 21-25.58 24.25-31.42 2.61-4.31 1.64-9.88-1.84-15.31l-1.4 2.72-1.38 2.54-1.55 2.21a2.35 2.35 0 011.92.18c9 4.62-14.11 17.62-24.32 11.55a15.51 15.51 0 008.23-2.64l-2.34.61-3.62.36-3.78-.06-4.25-.38-4-.85-3.92-1-3.45-1.17-3.36-1.32-3-1.32-3-1.32-3-1.32-2.55-1.32-2.64-1.15-2.64-1.16-1.44-.34c-8.28 6.66-14.63 13.92-16.71 19.51a34 34 0 0038.12 11.55c-9.88 6.24-27.79 32-26.34 59.06zm36.6-104.56c8.21-1.43 27 8.45 29.12 4.7 3.45-6.31-21.41-11-29.12-4.7zm4.64-12.57c5.95-.17 24.41 9.14 25.57 5.69 2-5.86-17-11-25.57-5.69zm23.65-35.36C92.1 285.38 111 304 113.05 294.17c1.19-5.46-15.31-10.72-17.69-20.24zm86.08 103c-6.94-4.59-13.7-24.86-17.82-23.54-6.94 2.09 7.69 22.78 17.82 23.54zm-12.14 5.89c-4.45-3.91-11.14-23.54-14.45-21.82-5.42 2.68 4.68 19.6 14.45 21.82zm-41.5 9.2c10.28-6.23 9.56-32.7 1.37-27-4.62 3.08 3.48 18.38-1.37 27zM229.2 238a3.73 3.73 0 10-2.92 4.46 3.74 3.74 0 002.92-4.46zm3.4 4.28a2.28 2.28 0 10-1.84 2.74 2.31 2.31 0 001.84-2.74zm-6.32 11.89a2.24 2.24 0 10-4.39.86 2.28 2.28 0 002.63 1.77 2.25 2.25 0 00.81-.34 3.08 3.08 0 00-.11 1.54 3.11 3.11 0 101.06-3 2.08 2.08 0 000-.86zm12.58 6.95a3 3 0 00-3.53-2.45 3.1 3.1 0 00-2.42 3.62 3 3 0 003.59 2.34 3 3 0 002.36-3.5zm-3.17 6.62a2.1 2.1 0 10-4.12.81 2.1 2.1 0 104.12-.81zm.51 5.51a1.77 1.77 0 00-2.08-1.4 1.82 1.82 0 00-1.4 2.08 1.77 1.77 0 002.08 1.4 1.72 1.72 0 001.4-2.08zm11 4.87a2.53 2.53 0 00-3.05-2 2.51 2.51 0 00-2 3 2.57 2.57 0 105-1zm-10.2 6.66a3.59 3.59 0 10-2.87 4.28 3.57 3.57 0 002.87-4.28zm7.38 7.12a2.19 2.19 0 00-2.61-1.67 2.1 2.1 0 00-1.69 2.52 2.19 2.19 0 002.53 1.79 2.28 2.28 0 001.77-2.63zm4.6 7a2.75 2.75 0 10-2.21 3.29 2.72 2.72 0 002.21-3.29zm27 49.77c-10.56 4.26-21.2 7.2-27.27 1a10 10 0 01-.46 8.28 8.94 8.94 0 01-4.24 4.07.33.33 0 01.14.25 10 10 0 017.9.55 9.27 9.27 0 014.21 4.5c-.26-8.6 9.22-14.08 19.73-18.61zm-.78-127.76a13.29 13.29 0 01.44-3.47l-.48.28a94.55 94.55 0 00-.79 3.55l.83-.36zm22.4-6c-1.19-.22-2.39-.47-3.59-.75a9.75 9.75 0 01.77 1.24l2.82-.5zm-1.6 3.74a11.38 11.38 0 01.12 1.23 10.53 10.53 0 01-.08 2.34 10.13 10.13 0 01-9.13 8.88h-.1a8.76 8.76 0 003.66.49 9.81 9.81 0 007.75-4.95 10.73 10.73 0 001.43-6.17 11.27 11.27 0 00-.48-2.82l-3.18 1zm-108.28-86.17c3.69 2.05 7.56 1.9 11.46 1.11 7.4-6.51 17.18-6.93 24.18-.28a89.45 89.45 0 01-.5-10.16l-.93.17a11.28 11.28 0 00-.41 7.71c-2.93-3.45-7.11-4.77-12-4.81l-21.79 6.26zm98.14 37l.66-.28a69.9 69.9 0 00-.11 9.33 103.87 103.87 0 0125.28-25.45 22.78 22.78 0 00-3.38-.71c-8.08-1-12.28 6.22-9.29 10.77-6.34-9.13-6.51-13.85.07-20.94-6.35-7.21-8.65-12-15.45-10.7a38 38 0 00-.66 6c4 9.6 4.3 20.76 2.88 32zm-5.28-36.73v-.21l-.08.06.08.15zM278 129l.39-.24.94-.57 1-.38.7-.2c.14-.91.32-1.82.52-2.72l-.38.38-.66.51-.57.5-.64.6-.55.58-.55.58-.48.47.36.45zm-3.33-3.69a40.92 40.92 0 013.6-3.48 62.37 62.37 0 015.5-4.11c3.28-7.8 9.94-16 20.6-16.89 5.46-.57 11.56 1.78 14.48 6.73a14.24 14.24 0 011.87 9.4 69.66 69.66 0 014.48 7.25c-1.29-11.44 8.16-18.53 17.61-11.54-13.69 9.16-2.24 16.71 3.34 17 11.72.65 19-11.42 17.26-23s-8-24.13-10.49-26.38c-.26 5-.45 5.5-4.9 9.43-2.64-11.56-10.5-19.15-17.54-24.52 3.57 6.14 4.49 13.2-.62 19.15-5.6-7.74-12.83-21.83-29.22-22.52 12.23 4.26 12.89 15.35 9.5 22.3C291.33 65.71 270 71.9 257 82.06c16.94-3.37 27.38 2.92 31.47 11a5 5 0 011.24.05 4.22 4.22 0 01.74 8.08 15 15 0 01-2.4 8.29c-7.57 11.38-17.15 11-21 7.74s-3.88-10.08 5.15-13c-1.23 10.23 6.7 6.48 7.42 3.86.88-3.31.72-8.41-4.89-11.88a18.18 18.18 0 00-3.79-1.74 3.45 3.45 0 01-5.86-.91c-8 0-16.21 4.89-21.42 11.89a42.26 42.26 0 00-5.34 9.81c11.31-1 24.09.15 33.28 7.31a37.74 37.74 0 013.14 2.76zm-41.34-9.49l.27-.82.83-2.07.92-2.09.95-2 1.12-2 1.31-2.06.92-1.37a2.94 2.94 0 01-1.09 0 2.88 2.88 0 01-2.34-3.45 2.9 2.9 0 015.74.55l.63-.76.95-.94.88-.85 1-.94 1.09-.78 1-.86 1.08-.77 1.1-.7 1.1-.69 1.12-.6.8-.41a2.46 2.46 0 012.46-1.21l.21-.09 1.15-.42 1.24-.43 1.28-.26 1.26-.34 1.3-.15 1.2-.15 1.32-.06 1.32-.08 1.12.12a3.37 3.37 0 013.83.39 2.48 2.48 0 010-1 2.56 2.56 0 013-2 2.49 2.49 0 012 3 2.55 2.55 0 01-1 1.59l.16.08 1.16.64 1.19.62.74.43.57.46.65.45.58.55.48.47.57.46.48.57.39.5.4.58.39.59.39.49v.07a2.34 2.34 0 01.6 0 2.56 2.56 0 012 3 2.69 2.69 0 01-1 1.68l.1.55v.57l.1.45v1.13l-.09.5v.47l-.09.5.05.28.08-.11.41-.84.41-.75.33-.83.19-.89.21-.89.1-1v-1.56a4.22 4.22 0 01-1.3-3.88 4.6 4.6 0 01.19-.61l-.33-.8L284 94l-.66-.91-.65-.92-.84-.88-.82-.79-1-.85-1.1-.73-1.17-.63-1.25-.62-1.36-.58-1.43-.48-1.59-.36-1.68-.33-1.75-.22-1.92-.1h-2.09l-2.16.14-2.23.25-20.58 3.66 16-12.08 1.43-.94 1.43-.94 1.52-1 1.54-.88 1.46-.81 1.65-.8 1.67-.7 1.78-.64 1.8-.66 1.79-.55 1.79-.54 1.84-.36 1.92-.37 1.86-.18 2-.19 2-.1 2 .08 2 .08 2 .27 2 .38 2.08.45 2 .65 2 .74 2.06.82 2 .94 2 1.12 2 1.21 2 1.43.11.07v-.57l-.1-.55-.12-.54-.12-.64-.1-.55-.2-.53-.2-.53-.29-.51-.27-.42-.29-.52-.38-.49-.38-.5-.39-.5-.47-.47-.54-.37-.58-.46-.66-.45-.74-.42-.72-.34-.85-.4-28.77-11 31.23 2.24 1.74.14 1.59.35 1.59.35 1.52.46 1.53.56L312 60l1.36.59 1.27.7 1.3.8 1.2.8 1.12.83 1.12.92 1.12.83.94 1 1 .94.86 1 .94 1 .86 1 .76 1 .77 1 .76 1 .75.9.67 1 .15.25v-1.42l-.09-.46-.09-.46-.09-.46-.09-.46-.09-.45-.19-.45-.09-.45-.2-.53-.18-.45-.29-.51-.18-.44-.2-.54-.29-.51-10.83-19.19 17.76 13.54.68.53.76.52.7.63.69.63.79.6.69.63.7.63.7.71.71.72.7.72.72.71.7.71.64.83.71.71.64.82.63.82.65.93.64.82.56.94.65.92.57.93.5 1 .54-8.38 7.27 7 .38.49.49.57.39.5.4.58.4.58.42.69.41.68.33.7.43.81.44.78.46.86.37.88.45.87.38 1 .48 1 .38 1 .38 1 .5 1 .39 1.06.4 1.06.31 1.08.41 1.16.31 1.08L366 98l.33 1.17.31 1.08.31 1.18.24 1.19.24 1.19.22 1.19.24 1.18.15 1.31.05 1.23.07 1.31v1.24l-.16 1.23-.14 1.26-.13 1.26-.31 1.3-.25 1.19-.42 1.23-.35 1.12-.53 1.15-.54 1.15-.56 1.06-.64 1.08-.65 1.07-.77.92-.75 1-.87.93-.88.84-.89.75-1 .76-1.1.69-1.12.6-1.12.61-1.14.5-1.26.34-1.27.35-1.28.25-1.38.17-1.32.08L346 134h-.86l-.88-.11-.81-.22-.81-.22-.91-.29-.82-.32-.85-.4-.74-.42-.84-.4-.76-.52-.79-.61-.78-.61-.7-.63-.73-.81-.62-.73-.57-.94-.56-.93-.4-1.06-.4-1.06-.14-1.21-.14-1.21.11-1.3.25-1.19.42-1.24.52-1.24.64-1.07.58-.88h-.09l-.37.07-.46.09-.34.16-.36.16-.33.26-.33.26-.33.26-.32.34-.31.35-.29.44-.21.41-.28.44-.2.52-.16.6-.18.52-.15.7-.15.7-.05.67v.77l.05.75 1.68 19.8a112.44 112.44 0 0133.12-7.26l.6-1.12.84-2 .78-1.86.64-2 .56-2 .37-2 .38-2 .36-2.06.16-2 .09-2 .06-2.11-.1-2-.1-2-.12-2.07-.28-1.94-.27-1.85-.32-1.88-.45-1.81-.41-1.69-.43-1.73-.53-1.7-.49-1.57-.58-1.5-.57-1.41-.54-1.31-.52-1.22-.6-1.12-4.4-7.88 8.71.28.76-.05h.65l.63-.13.64-.12.63-.22.53-.2.52-.29.5-.29.52-.29.51-.29.5-.38.39-.45.39-.37.39-.46.37-.54.29-.45.27-.52.28-.53.19-.52.27-.52.09-.58.18-.52.06-.21h-.19l-1.18.23-1.11.22h-2.26l-1.15-.05-1.08-.17-1.09-.27-1-.27-.94-.39-1-.47-.94-.49-.87-.5-.84-.5-.79-.61-.79-.6-.88-.59-.81-.7-.77-.6-.81-.7-.81-.7-.8-.7-.89-.68-.9-.68L354 62l-.9-.69-.9-.76-1-.76-1.43-1-1.42-1-1.52-.94-1.53-.85-1.59-.83-1.69-.9-1.7-.91-1.78-.79-1.77-.79-1.86-.78-1.91-.78-2-.66-1.94-.67-2-.64-2-.57-2.1-.53-2.09-.45-2.16-.34-2.09-.44-2.23-.23-2.14-.25-2.21-.13-2.22-.14-2.2-.05-2.27.07-2.27.06-2.24.25-2.22.25-2.22.34-2.28.45-2.18.52-2.25.63-2.07.6-2 .67-2 .87-2.1.89-2 1-2 1-2.02 1.08-1.94 1.2-2 1.25-1.94 1.24-2 1.44-1.91 1.42-1.89 1.52-1.88 1.61-1.94 1.63-1.87 1.61-1.75 1.77-1.85 1.7-1.73 1.86-1.6 1.75-1.62 1.93-1.64 1.84-1.62 1.93-1.51 2-1.43 1.91-.91 1.28a3.86 3.86 0 01.1 1.92A4.05 4.05 0 01237 90l-1 1.54-1.13 2-1.12 2-1.11 2.12-.6 1.26-.59 1.36-.58 1.44-.57 1.44-.46 1.52-.46 1.52-.36 1.59-.36 1.59-.33 1.68-.25 1.67-.33 1.68-.14 1.74v.63c1.91-.37 3.8-.7 5.73-1zm-6.08 6.55v2.82l.07 1.79.08 1.89.18 1.87.18 1.86.19 2 .27 1.86.29 1.93.38 1.92.37 1.93.36 1.83.47 1.91.53 1.82c.47-.64 1-1.27 1.47-1.87l-.07-.24-.32-1.64-.23-1.67-.35-1.73-.15-1.79-.16-1.77-.08-1.89v-3.9l.1-1.93.17-2 .18-2 .35-2.07.25-1.48c-1.51.2-3 .4-4.49.63zm9.15-1.12a54.23 54.23 0 00-.55 21 23.25 23.25 0 017.87-4.16c8-2.55 16.26-1 23.06 2.16.45.18.91.39 1.35.6-.51-2.88.34-6.22 2.23-9.62a28.59 28.59 0 00-3.23-2.93c-8.81-6.7-19.79-7.87-30.73-7zm37 13.71l-.11.3-.29.44-.1.5-.17.51-.1.5-.1.4-.12.4v1.17l.05.27.07.37.05.28.05.27.06.28.24.71.3.6.29.52.29.51.28.42.27.42.26.33.33.21.24.24.21.15.22.15.21.05.2.06.11.07.2.06.2.06.28-.06h.18l.21.06.27-.05.26-.15.28-.06.17-.09-.19-.57-.15-.15-.4-.59-.4-.58-.42-.68-.39-.58-.33-.7-.31-.61-.33-.7-.26-.82-.22-.71-.26-.8-.09-.87c-.31-.51-.63-1-1-1.49zm5.81 14.21l-.27.09.39.47-.12-.56zm.82 6a30.26 30.26 0 00-5.73-6 7.72 7.72 0 01-3.07-2.16 33.31 33.31 0 00-7.86-3.61 31.69 31.69 0 00-7.06-1.53c-9.67 10.57-4.5 19.75.2 24.17 1.22-5.38 5.28-8 9.51-9.68 3.28 12.39 8.59 17.64 11.68 21.3a36.06 36.06 0 012.83-4.1 149.18 149.18 0 00-.51-18.45zm0 27.27l-1.65 2.84-4.29-5-.28-.42-.35-.32-.36-.4-.37-.4-.36-.4-.38-.5-.38-.5-.39-.49-.47-.47-.41-.59-.39-.59-.49-.57-.4-.59-.41-.67-.42-.68-.51-.66-.44-.77-.43-.77-.43-.77-.46-.86-.34-.79-.47-1-.45-.86-.37-1-.38-1-.4-1.06-.17-.34-.33.25-.4.37-.39.46-.31.34-.28.53-.28.44-.19.52-.25.62-1.36 5c2.06 2.78 3.42 6.81 1.88 10.65-1.17 3.17-3.7 5.23-6.39 6.77l.81.72.94 1 1 .94 1 .84 1.77 1.43 1.8 1.46 1.86 1.25.44.31a12 12 0 012.3-.74 11.71 11.71 0 018.41 1.37q1.73-3.77 3.9-7.69.37-3.66.65-7.31zm9.56 25a13.3 13.3 0 017.29 2.82l.29.06 1.89.4 2 .37 1.85.21 1.77.32 1.85.21 1.83.12 1.75.23h1.73l1.73.14h.36a10.56 10.56 0 012.59-2.61l1.12-2.78-.59-.16-1.4-.39-1.44-.48-1.25-.61-1.25-.61-1.18-.71-1.21-.82-1-.85-1-.84-1-.94-.36-.36c-5.72.61-12 2.82-16.24 7.24zm-24.4-5c-.85-.52-1.69-1.07-2.52-1.64a9.86 9.86 0 00-1.19 1.39c-2.94 4.15-2.1 9.89 1.79 12.56a6.89 6.89 0 003 1.31h-.11a9 9 0 01-1.78-12.56 9.92 9.92 0 01.85-1zm8.67-2.82a8.28 8.28 0 00-6.84-1.24l1 .66 1.31.77a8.92 8.92 0 014.48-.19zm-50.83-82a63.52 63.52 0 013.56-16.94c-1.72 4.31-3 9.27-3.56 16.94zM83.58 153a2.63 2.63 0 003.58-1 2.69 2.69 0 00-1.09-3.61 2.63 2.63 0 00-3.55 1.12 2.57 2.57 0 001.06 3.49zm-.82-6.51a1.8 1.8 0 002.44-.8 1.87 1.87 0 00-.68-2.48A1.89 1.89 0 0082 144a1.83 1.83 0 00.76 2.52zm-3.26-3.67a1.54 1.54 0 002.08-.63 1.6 1.6 0 00-.63-2.09 1.53 1.53 0 00-2.08.64 1.48 1.48 0 00.63 2.08zm-9.5 3.52a2.27 2.27 0 10-.92-3.07 2.3 2.3 0 00.92 3.07zm0-10.65a3.11 3.11 0 102.95-5.49 3.05 3.05 0 00-4.16 1.25A3.09 3.09 0 0070 135.7zm-8.15 2.88a1.82 1.82 0 002.51-.76 1.9 1.9 0 00-.72-2.59A2 2 0 0061 136a1.9 1.9 0 00.84 2.56zm-7.33.66a2.35 2.35 0 10-1-3.19 2.35 2.35 0 001 3.19zM51.24 132a2.1 2.1 0 102-3.7 2.1 2.1 0 10-2 3.7zm-6.11-.25a1.66 1.66 0 10-.62-2.26 1.64 1.64 0 00.62 2.26zm-4.88 2.14a3.09 3.09 0 003.38-1.55 3 3 0 00-5.35-2.87 3.1 3.1 0 000 2.9 2.56 2.56 0 00-2.72 1.32 2.75 2.75 0 00-.24 2 3.27 3.27 0 00-2.74 5.93 3.27 3.27 0 004.59-4.14 2.61 2.61 0 003-1.33 2.5 2.5 0 00.06-2.29zM34 148a1.66 1.66 0 001.57-2.93A1.66 1.66 0 1034 148zm-5.16 2.1A2.3 2.3 0 1031 146a2.3 2.3 0 00-2.18 4.06zm-7.66 2.14a1.78 1.78 0 002.34-.76 1.74 1.74 0 00-3.06-1.64 1.79 1.79 0 00.73 2.4zm-3.36 6.29a2.71 2.71 0 10-1.16-3.66 2.71 2.71 0 001.16 3.66zm3.8 7.46a1.94 1.94 0 001.83-3.43 1.94 1.94 0 10-1.8 3.44zm182.49-84.82a2.09 2.09 0 002.46-1.67 2.1 2.1 0 10-4.13-.79 2.11 2.11 0 001.67 2.46zm-26 92.72c7.66 10.36 13.85 21.19 8.74 29.44a12 12 0 019.23-1.78 11 11 0 015.65 3.54c0-.09.15-.18.27-.27a10.85 10.85 0 01-1.75-8.8 11.4 11.4 0 013.75-5.82c-9.31 2.73-18-6.11-25.92-16.3zm-61.82-41.6c-12.32-4-23.57-9-24.4-18.71a11.91 11.91 0 01-6.34 6.84 11 11 0 01-6.62.45c0 .1 0 .21-.06.31a10.92 10.92 0 016.54 6.18 11 11 0 01.29 6.92c6-7.66 18.2-5.55 30.59-2zm24.81 16a13.82 13.82 0 107.59-18 13.86 13.86 0 00-7.59 18zm-13 5.24c.21.57.52 1.18.74 1.75a21.6 21.6 0 013.79-.78 18.45 18.45 0 0119.92 16.35 22.94 22.94 0 004.74-.16 22.38 22.38 0 01.51-3.77 18.59 18.59 0 0122-13.6A33.39 33.39 0 00181 149a21.81 21.81 0 01-3.32-1.71 18.55 18.55 0 01-5.6-25.19 21.51 21.51 0 00-4.34-3.08 14.32 14.32 0 01-2.64 2.61 18.41 18.41 0 01-25.7-2.34 27.1 27.1 0 00-4.39 3.35 20.12 20.12 0 011.73 3.33 18.52 18.52 0 01-9.82 24c.32 1.13.73 2.39 1.15 3.54zM272.71 3.17a3.92 3.92 0 10-7.71 1.5 3.92 3.92 0 107.69-1.5zm3.19 13.36a2.15 2.15 0 10-1.7 2.52 2.13 2.13 0 001.7-2.52zm7-5.76a2.7 2.7 0 10-2.14 3.18 2.7 2.7 0 002.14-3.18zm7.51-.52a2.15 2.15 0 10-1.7 2.52 2.13 2.13 0 001.7-2.52zm3.45 3.61a1.58 1.58 0 10-1.25 1.86 1.64 1.64 0 001.25-1.86zm.76 7.74a2.24 2.24 0 10-1.76 2.63 2.26 2.26 0 001.76-2.63zm4.6 2.14a2 2 0 10-1.55 2.3 1.92 1.92 0 001.55-2.3zm2.23 5.08a2.08 2.08 0 00-2.4-1.63 2.1 2.1 0 102.4 1.63zm9-5a2.83 2.83 0 00-3.3-2.3 2.9 2.9 0 00-2.28 3.4 2.83 2.83 0 003.38 2.19 2.75 2.75 0 002.2-3.29zm2 5.71a1.91 1.91 0 10-1.55 2.29 1.9 1.9 0 001.55-2.29zm7.38-5.92a3.77 3.77 0 00-7.4 1.45 3.77 3.77 0 107.4-1.45zm2.38 7.72a1.68 1.68 0 10-1.33 2 1.66 1.66 0 001.33-2zm5.38 4.16a3.32 3.32 0 10-2.65 4 3.35 3.35 0 002.65-4zm5.77 4.29a2.84 2.84 0 00-5.57 1.09 2.84 2.84 0 005.57-1.09zm10.8 10.44c.43-.57.82-1.15 1.2-1.71l-.43-.32a19.46 19.46 0 01-.77 2zM236.63 81.87h.49c1.3-1.83 2.67-3.61 4.07-5.38-1.51 1.74-3 3.53-4.56 5.35zm23.23 19.9a3.42 3.42 0 004-2.66 3.5 3.5 0 00-2.76-4.06 3.41 3.41 0 00-4 2.78 3.32 3.32 0 002.68 3.94zm-11.56-7.89a2 2 0 002.34-1.59A2.08 2.08 0 00249 90a2 2 0 00-2.34 1.6 1.93 1.93 0 001.59 2.34zm51.39 23.21c0 9 13.2 10 15.71 2.46a8.83 8.83 0 00.55-1.53l-.26-.3-.48-.48-.57-.45-.57-.47-.46-.47-.65-.34-.55-.38-.62-.25-.62-.27-.7-.24-.72-.23-.75-.14-.78-.13-.88-.11h-1.94l-1.11.12-1.12.13-1.27.25-1.29.25-.62.21-.53.21-.64.12-.64.22-.62.21-.62.21-.61.32-.63.21-.6.31-.71.23-.61.31-.6.31-.69.33-.61.31-.68.42-.61.31-.61.3-.67.43-.58.39-.7.33-.5.33a39.59 39.59 0 00-2.64 6.36l.93-.09h.86l.79.13.88.11.81.22.8.22.73.33.73.33.73.33.65.44.66.45.57.46.58.55.56.46.49.57.57.45.5.57.49.57.49.58.48.57.5.57.52.66.49.57.6.64.52.66.51.66.6.64 3.19 3.66-3.2 3.57-.45.57-.48.47-.38.55-.38.46-.29.44-.29.44-.21.42-.21.42-.11.4-.13.31.16-.13.77-.43.76-.45.79-.33.88-.36.81-.26.91-.18.92-.18 1-.1h1.9l1.06.08.79.14.89.21.79.12.89.21.8.21.82.22.82.32.8.22.82.32h.12c1.49-.92 3-1.81 4.63-2.66a90.91 90.91 0 019.87-4.51l-10-17.19-.34-.7-.44-.77-.41-.68-.42-.68-.4-.7-.39.62c-6.55 9.68-21.53 2.86-18.85-5.63zm15.39-5.48a10.48 10.48 0 00-12.71-4.61 23.4 23.4 0 00-8.76 5.32 42.14 42.14 0 015.79-2.05c7-1.78 12-.87 15.68 1.35zM247.21 187A100.12 100.12 0 01231 161.82c-1.71 11.65 6 25.61 16.23 25.19zm-5.48-18.67c1.89-2.78 5.1-3.6 8.37-3l-.25-.41-.53-.75-.45-.87-.44-.77-.36-.87-.38-1-.36-.88-.2-1-.28-1-.2-1-.12-1.12v-2.13l-.37.55-.26.62-.27.53-.36.63-.28.53-.26.62L241 166l-5-8.63-.48-1-.49-1-.51-1.13-.43-1.25c-.4.69-.77 1.41-1.1 2.14l.47 1.43.57 1.42.65 1.39.56 1.42.65 1.39.74 1.37.65 1.4.73 1.28.74 1.38.74 1.37.73 1.29.82 1.26.81 1.26.83 1.36.89 1.16.82 1.27.91 1.24.9 1.16.89 1.16 1 1.23.88 1.06 1 1.14 1 1 1 1.14.12.14.45-.23c7.16-1.87 7.54-7.74 4.86-12.56l-4.37-4.2-.58-.56-.49-.57-.38-.49c-3.13-1.61-6.74-1.7-9.8 1.2zm12.46-26.58a23.13 23.13 0 00-11.39 2.44 19.33 19.33 0 00-5.52 4.27 33 33 0 003 7.46c2.66-6.58 7.37-12.58 13.89-14.17zM326 186.26c-5.82-1.84-12.41-2.69-18 .39a33.42 33.42 0 017.32 10.62 11.75 11.75 0 0110.73-11zm-10.47 14.53a19.79 19.79 0 00-2.63-.56 19.15 19.15 0 002.88 1.5 9.64 9.64 0 01-.25-.94zm3 .27a9.46 9.46 0 0117.67-4.89v.09a7.8 7.8 0 00-.82-3.17 9 9 0 00-12.17-3.89c-4.7 2.15-6.8 7.52-4.7 11.86zm-4 16.19a7.91 7.91 0 006.21 9.34c4.39 1 8.82-1.55 9.73-5.62a5.84 5.84 0 00.1-2.87v.09a8 8 0 01-9.73 5.62 8.17 8.17 0 01-6.33-6.56zm165.27 33a4.43 4.43 0 10-3.51-5.18 4.43 4.43 0 003.51 5.18zm20.35-6.74a2.42 2.42 0 10-1.92-2.83 2.38 2.38 0 001.92 2.83zm-4.74 9.81a3.05 3.05 0 10-2.41-3.62 3.07 3.07 0 002.43 3.57zm0 10.19a1.79 1.79 0 10-1.43-2.09 1.85 1.85 0 001.43 2.09zM487 261a2.53 2.53 0 10-2-3 2.56 2.56 0 002 3zm-4.17 3.92a2.21 2.21 0 112.58-1.75 2.16 2.16 0 01-2.58 1.75zm-6.25.21a2.37 2.37 0 00.88-4.65 2.37 2.37 0 10-.88 4.65zm1.42 11.53a3.2 3.2 0 003.79-2.49 3.29 3.29 0 00-2.6-3.82 3.18 3.18 0 00-3.69 2.65 3.09 3.09 0 002.52 3.69zm-6.8-.33a2.13 2.13 0 002.48-1.78 2.11 2.11 0 00-1.67-2.46 2.15 2.15 0 10-.81 4.23zm3.09 10.24a4.26 4.26 0 001.59-8.38 4.26 4.26 0 10-1.59 8.38zm-9.07-.76a1.9 1.9 0 10-1.5-2.22 1.9 1.9 0 001.5 2.22zm-6.63 3.88a3.74 3.74 0 10-3-4.43 3.78 3.78 0 003 4.43zm-6.93 4.26a3.21 3.21 0 001.21-6.31 3.21 3.21 0 00-1.21 6.31zm-33-147.29a69.73 69.73 0 0114.34 9.92 58.69 58.69 0 00-14.32-9.92zm60 45.55a9.15 9.15 0 0012.09 4 9 9 0 00-8.07-16.13 9.14 9.14 0 00-4 12.1zM361.4 146.87a41.69 41.69 0 01-26.72 12c-5.86.28-11.68-1.87-17-3.8l-.94.64-2.21 1.4-2 1.44-2 1.55-1.91 1.56-1.91 1.56-1.71 1.62-1.82 1.69-1.73 1.71-1.65 1.76-1.61 1.73-1.51 1.75-1.51 1.74-1.43 1.88-1.41 1.77-1.3 1.79-1.32 1.89-1.2 1.81-.82 1.25a16.36 16.36 0 005 7.9 31 31 0 019-12.05 14 14 0 00.3 2.72l4.73-2.45 1.17-.52 1.15-.43 1.24-.29 1.24-.31 1.12-.21 1.22-.2 1.19-.09h3.53l1.17.11 1 .2 1.15.11 1.14.22 1 .29 1 .2 1 .31 1 .3.3.06-.16-.25-4.74-6.05 7-2.42.57-.11.46-.22.58-.22.57-.2.57-.22.67-.19.69-.19.68-.2.7-.29.79-.17.78-.17.8-.28.79-.17.88-.15.88-.15.9-.26 1-.13 1-.14 1-.13L345 169h1l1.19-.1 1.09-.11h4.07l-.14-.46-.21-.57-.31-.59-.24-.47-.43-.52-.34-.49-.46-.41-.54-.53-7.4-5.6 8.33-3.77.82-.38.81-.28.89-.25.93-.36 1-.24.88-.15 1-.24 1.09-.11 1-.14h3.31l1.13.22 1.17.11 1.13.21 1.22.34 1.1.42 1.2.45-.41-.62-.55-.53-.44-.51-.52-.64-.44-.52-.54-.53-5-4.82zm-57.45 42.81a28.19 28.19 0 003.35 5.38h.27l.87-.05-.33-.49-.49-.85-.62-.67-.5-.74-.63-.65-.63-.65-1.29-1.29zm95.14 8.57l.4-.46 1.93-1.13 1.94-.59h-.3l-.19-.14h-.21l-.23.06h-.3l-.22.06h-.1l-.22.06-.22.06-.13.09-.25.16-.22.06-.12.09-.24.17-.15.19-.26.07-.27.27-.15.28-.27.28-.16.29v.1zm-38.17-57.55l-1.26.17-1.75.2-1.74.21-1.67.22-1.67.32-1.67.33-1.77.31-1.59.45-1.67.33-1.69.43-1.58.45-1.6.45-1.7.53-1.48.47-1.61.55-1.49.57-1.61.56-1.49.57-1.41.59-1.47.59-1.43.7-1.39.59-1.43.69-1.32.72-.78.45.21.08.82.32.81.22.81.22.8.21.8.22.81.22.81.22.69.15.79.14.79.13h.76l.68.05h2.19l.93-.09.84-.07.94-.09.82-.16.94-.09.81-.16.9-.28.91-.17.82-.26.89-.27.81-.26.9-.27.78-.35.78-.34.88-.36.79-.34.79-.35.76-.44.77-.43.69-.42.76-.44.77-.43.66-.52.67-.42.66-.52.66-.5.65-.3.55-.58.57-.49.65-.52.46-.57.55-.58 1.47-1.72.66-.81zm-65.13 56.82l.52-.21 1.38-.49 1.47-.37 1.46-.36 1.36-.39.3-.05-.15-.2-.7-1.11-.59-1.12-.59-1-.5-1.13-.33-.7-.29.44-.54.67-.34.73-.44.66-.33.73-.33.73-1.36 3.19zm-23.66-82.84l-.52-.19-1.56-1.21-1.13-1.4v.27l-.05.2v.18l.13.16v.27l.13.17v.09l.14.15.12.17.1.08.22.15.12.16.12.08.21.14.21.06.31.13.31.13h.29l.31.13h.3z" fill-rule="evenodd" fill="url(#a)"/><path d="M256 428.62c95.07 0 172.62-77.54 172.62-172.61S351.07 83.38 256 83.38 83.38 160.93 83.38 256 160.92 428.62 256 428.62z" fill="#fff" fill-rule="evenodd"/><path d="M256 431.28A175.26 175.26 0 00431.27 256 175.29 175.29 0 00256 80.73 175.28 175.28 0 0080.73 256 175.26 175.26 0 00256 431.27zm0-5.31A170 170 0 0186 256 170 170 0 01256 86a170 170 0 01170 170 170 170 0 01-170 170z" fill="#231f20"/><path d="M256 420.1c90.38 0 164.09-73.72 164.09-164.1S346.38 91.91 256 91.91 91.9 165.63 91.9 256 165.62 420.1 256 420.1z" fill="#231f20" fill-rule="evenodd"/><path d="M412.43 206.32a164.14 164.14 0 00-312.86 0C113.41 270.43 178.19 319 256 319s142.59-48.57 156.43-112.68z" fill-rule="evenodd" fill="url(#b)"/><path d="M168.46 196.72h134v-7.56a9.62 9.62 0 019.6-9.6h19.15a9.62 9.62 0 019.59 9.6v7.56h2.77a18.37 18.37 0 0118.3 18.28v89.58a18.37 18.37 0 01-18.32 18.32H168.46a18.37 18.37 0 01-18.33-18.32V215a18.37 18.37 0 0118.33-18.32zM256 213a46.83 46.83 0 1046.83 46.83A46.83 46.83 0 00256 213z" fill-rule="evenodd" fill="url(#c)"/></svg>