<svg width="13" height="13" fill="none" xmlns="http://www.w3.org/2000/svg"><path fill-rule="evenodd" clip-rule="evenodd" d="M4.232 1.033C4.82 1.006 5.006 1 6.5 1c1.494 0 1.681.006 2.267.033.586.027.986.12 1.336.256.367.138.699.355.974.635.28.274.496.606.634.973.136.35.229.75.256 1.335.027.587.033.774.033 2.268 0 1.494-.007 1.681-.033 2.268-.027.584-.12.984-.256 1.334-.138.367-.354.7-.634.975-.275.28-.607.496-.974.634-.35.136-.75.229-1.335.256-.587.027-.774.033-2.268.033-1.494 0-1.681-.007-2.268-.033-.585-.027-.985-.12-1.335-.256a2.699 2.699 0 01-.974-.634 2.697 2.697 0 01-.635-.974c-.135-.35-.228-.75-.255-1.335C1.006 8.18 1 7.993 1 6.5c0-1.494.006-1.681.033-2.267.027-.586.12-.986.256-1.336.138-.367.355-.7.635-.974.274-.28.606-.496.973-.635.35-.135.75-.228 1.335-.255zm4.49.99c-.58-.027-.753-.032-2.222-.032-1.468 0-1.643.005-2.223.032-.536.024-.827.114-1.021.19-.256.1-.44.218-.632.41a1.706 1.706 0 00-.412.633c-.075.194-.165.485-.189 1.022-.027.58-.032.754-.032 2.222s.005 1.643.032 2.223c.024.536.114.827.19 1.021a1.7 1.7 0 00.41.633c.178.182.394.322.633.41.194.076.485.165 1.022.19.58.027.753.032 2.222.032 1.469 0 1.643-.005 2.223-.032.536-.024.827-.114 1.021-.19.257-.1.44-.218.633-.41.182-.178.322-.395.41-.633.076-.194.165-.485.19-1.021.027-.58.032-.755.032-2.223s-.005-1.643-.032-2.223c-.024-.536-.114-.827-.19-1.021a1.71 1.71 0 00-.41-.632 1.706 1.706 0 00-.633-.412c-.194-.075-.485-.165-1.021-.189zM5.799 8.195a1.834 1.834 0 10.522-3.52 1.835 1.835 0 00-.522 3.52zM4.5 4.501a2.827 2.827 0 113.998 3.998A2.827 2.827 0 014.5 4.501zm5.453-.407a.67.67 0 10-.918-.974.67.67 0 00.918.974z" fill="#fff"/></svg>