<svg width="90" height="35" fill="none" xmlns="http://www.w3.org/2000/svg"><path d="M3.46 3.8H.3V1h9.58v2.8H6.7V15H3.46V3.8zM11.516 1h3.28v14h-3.28V1zm20.817 14h-3.16V6.32L26.153 15h-2.4l-3.12-8.68V15h-3.16V1h3.74l3.74 9.74 3.7-9.74h3.68v14zm9.399.36c-1.16 0-2.2-.2-3.12-.6-.92-.413-1.7-.96-2.34-1.64a6.995 6.995 0 01-1.46-2.34 7.887 7.887 0 01-.5-2.78c0-.96.166-1.88.5-2.76a6.95 6.95 0 011.46-2.36c.64-.68 1.42-1.22 2.34-1.62.92-.413 1.96-.62 3.12-.62 1.16 0 2.193.207 3.1.62.92.4 1.7.94 2.34 1.62a6.952 6.952 0 011.46 2.36c.333.88.5 1.8.5 2.76a7.89 7.89 0 01-.5 2.78c-.334.88-.82 1.66-1.46 2.34a7.248 7.248 0 01-2.34 1.64c-.907.4-1.94.6-3.1.6zm0-2.92c.64 0 1.213-.12 1.72-.36a3.958 3.958 0 001.28-1 4.31 4.31 0 00.82-1.42 4.99 4.99 0 00.28-1.66 4.99 4.99 0 00-.28-1.66 4.305 4.305 0 00-.82-1.42 3.733 3.733 0 00-1.28-.98c-.507-.253-1.08-.38-1.72-.38-.64 0-1.213.127-1.72.38a3.94 3.94 0 00-1.3.98 4.5 4.5 0 00-.8 1.42 4.988 4.988 0 00-.28 1.66c0 .573.093 1.127.28 1.66a4.5 4.5 0 00.8 1.42c.36.413.793.747 1.3 1 .507.24 1.08.36 1.72.36zM51.106 1h5.86c.773 0 1.473.14 2.1.42a4.7 4.7 0 011.6 1.1c.453.453.8.987 1.04 1.6.24.613.36 1.26.36 1.94 0 .68-.12 1.327-.36 1.94a4.822 4.822 0 01-1.04 1.62 5.1 5.1 0 01-1.6 1.1c-.627.267-1.327.4-2.1.4h-2.62V15h-3.24V1zm5.46 7.48a2.14 2.14 0 001.62-.72c.2-.227.353-.487.46-.78.106-.293.16-.6.16-.92 0-.32-.054-.627-.16-.92a2.19 2.19 0 00-.46-.76 2.014 2.014 0 00-.7-.54c-.28-.133-.587-.2-.92-.2h-2.22v4.84h2.22zm15.315.96h-4.84V15H63.8V1h3.24v5.66h4.84V1h3.22v14h-3.22V9.44zM82.485 15h-3.58l2.58-5.26L76.525 1h3.78l2.98 5.5 2.56-5.5h3.58l-6.94 14zM1.26 20h5.8c.96 0 1.733.133 2.32.4.6.253 1.06.573 1.38.96.333.373.553.78.66 1.22.12.44.18.84.18 1.2 0 .44-.073.84-.22 1.2-.147.347-.34.653-.58.92a3.179 3.179 0 01-1.64 1c.227 0 .487.073.78.22.293.133.573.333.84.6.267.253.487.58.66.98.187.4.28.86.28 1.38 0 .36-.06.767-.18 1.22a3.32 3.32 0 01-.68 1.28c-.333.4-.8.74-1.4 1.02-.6.267-1.38.4-2.34.4H1.26V20zm5.16 5.7c.4 0 .72-.053.96-.16.253-.107.453-.24.6-.4.147-.173.247-.36.3-.56.053-.2.08-.387.08-.56 0-.16-.027-.333-.08-.52a1.11 1.11 0 00-.28-.52 1.393 1.393 0 00-.58-.42c-.253-.12-.587-.18-1-.18H4.48v3.32h1.94zm-1.94 2.38v3.44H6.5c.4 0 .72-.053.96-.16.253-.107.453-.24.6-.4.147-.173.247-.36.3-.56.053-.2.08-.4.08-.6 0-.16-.027-.34-.08-.54a1.435 1.435 0 00-.3-.56 1.552 1.552 0 00-.58-.44c-.253-.12-.573-.18-.96-.18H4.48zm16.236 6.28c-1.16 0-2.2-.2-3.12-.6-.92-.413-1.7-.96-2.34-1.64a6.995 6.995 0 01-1.46-2.34 7.887 7.887 0 01-.5-2.78c0-.96.167-1.88.5-2.76.334-.893.82-1.68 1.46-2.36.64-.68 1.42-1.22 2.34-1.62.92-.413 1.96-.62 3.12-.62 1.16 0 2.194.207 3.1.62.92.4 1.7.94 2.34 1.62a6.953 6.953 0 011.46 2.36c.334.88.5 1.8.5 2.76a7.89 7.89 0 01-.5 2.78 6.99 6.99 0 01-1.46 2.34 7.248 7.248 0 01-2.34 1.64c-.906.4-1.94.6-3.1.6zm0-2.92c.64 0 1.214-.12 1.72-.36a3.958 3.958 0 001.28-1c.36-.413.634-.887.82-1.42a4.99 4.99 0 00.28-1.66 4.99 4.99 0 00-.28-1.66 4.305 4.305 0 00-.82-1.42 3.733 3.733 0 00-1.28-.98c-.506-.253-1.08-.38-1.72-.38-.64 0-1.213.127-1.72.38a3.94 3.94 0 00-1.3.98 4.5 4.5 0 00-.8 1.42 4.988 4.988 0 00-.28 1.66c0 .573.094 1.127.28 1.66a4.5 4.5 0 00.8 1.42c.36.413.794.747 1.3 1 .507.24 1.08.36 1.72.36zM37.85 26.6h7.26v2.42h-1.44c-.147.8-.4 1.527-.76 2.18a5.549 5.549 0 01-1.42 1.68c-.587.467-1.28.833-2.08 1.1-.787.253-1.68.38-2.68.38-1.173 0-2.22-.2-3.14-.6a6.975 6.975 0 01-2.3-1.6 7.342 7.342 0 01-1.42-2.34 8.298 8.298 0 01-.48-2.82c0-.96.167-1.88.5-2.76a7.114 7.114 0 011.44-2.36 7.052 7.052 0 012.32-1.62c.907-.413 1.933-.62 3.08-.62.92 0 1.76.133 2.52.4.773.253 1.44.607 2 1.06.56.44 1.007.96 1.34 1.56.333.587.533 1.213.6 1.88h-3.46a2.29 2.29 0 00-.96-1.46 2.733 2.733 0 00-.9-.46 3.53 3.53 0 00-1.16-.18c-.667 0-1.247.127-1.74.38a3.901 3.901 0 00-1.26 1.02 4.58 4.58 0 00-.76 1.48 6.02 6.02 0 00-.24 1.7c0 .627.087 1.22.26 1.78.173.547.433 1.033.78 1.46.36.413.807.747 1.34 1 .547.24 1.18.36 1.9.36a4.04 4.04 0 001.32-.2 3.34 3.34 0 001-.58c.28-.24.507-.513.68-.82.173-.32.287-.653.34-1h-2.48V26.6zm8.72-6.6h3.24v9.2c0 .32.053.627.16.92.106.28.253.527.44.74.2.213.433.387.7.52.266.12.566.18.9.18.333 0 .633-.06.9-.18a2.14 2.14 0 00.7-.52c.2-.213.353-.46.46-.74.106-.293.16-.6.16-.92V20h3.24v9.22c0 .72-.127 1.393-.38 2.02a4.738 4.738 0 01-1.1 1.64 5.11 5.11 0 01-1.72 1.08c-.667.267-1.42.4-2.26.4-.84 0-1.594-.133-2.26-.4a5.39 5.39 0 01-1.72-1.08 4.88 4.88 0 01-1.08-1.64 5.34 5.34 0 01-.38-2.02V20zm21.804 9.12V20h3.22v14h-3.38l-5.04-9v9h-3.24V20h3.38l5.06 9.12z" fill="#fff"/></svg>