<svg width="13" height="13" fill="none" xmlns="http://www.w3.org/2000/svg"><path d="M10.544 3c-.312.005-.79.161-3.092 1.06a408.663 408.663 0 00-4.834 1.953c-.392.147-.597.29-.616.43-.036.27.377.352.895.511.423.13.993.28 1.29.286.268.006.567-.099.898-.31C7.343 5.497 8.507 4.775 8.58 4.76c.052-.01.123-.025.172.016.048.04.043.116.037.137-.04.164-2.16 1.974-2.282 2.093l-.06.056c-.45.422-.904.699-.12 1.183.709.438 1.121.717 1.85 1.167.466.286.832.626 1.313.585.222-.02.45-.215.567-.798.274-1.377.814-4.362.938-5.592a1.288 1.288 0 00-.013-.306.322.322 0 00-.118-.21.57.57 0 00-.321-.091z" fill="#fff"/></svg>