<svg width="180" height="170" fill="none" xmlns="http://www.w3.org/2000/svg"><path d="M139.942 103.061l2.318 1.163-.068.121a1.523 1.523 0 00-.211.652c-.005.214.04.412.136.594.097.183.234.349.411.5.181.163.39.304.627.423l2.968 1.489-2.456 4.352-4.673-2.345-.245.434-2.318-1.163.66-1.169 1.275.64 2.191-3.882-1.275-.64.66-1.169zm-.254 5.72l3.63 1.821 1.068-1.892-1.741-.874c-.458-.23-.823-.485-1.095-.766a1.207 1.207 0 01-.345-.978l-1.517 2.689zm-4.434 11.312l-.831-4.369-.414-.333 1.021-1.128 4.944 3.977-1.021 1.127-3.236-2.602.853 4.386.446.358-1.021 1.128-4.944-3.976 1.021-1.128 3.182 2.56zm-4.29 7.464l-2.423 1.772c-.377.276-.716.451-1.017.526-.295.082-.558.101-.788.057a1.316 1.316 0 01-.593-.236 1.935 1.935 0 01-.403-.358 1.1 1.1 0 01-.234-.482 1.236 1.236 0 01-.014-.525 1.81 1.81 0 01.207-.52c.097-.161.226-.305.386-.434-.172.115-.36.202-.564.262-.206.073-.41.105-.611.095a1.57 1.57 0 01-.595-.15 1.433 1.433 0 01-.518-.409 1.792 1.792 0 01-.264-.476 1.245 1.245 0 01-.079-.646c.029-.245.128-.507.297-.786.174-.273.461-.556.861-.848l2.344-1.715 4.008 4.873zm-3.497-1.914l-1.058-1.286-1.166.853c-.196.143-.303.322-.32.536a.76.76 0 00.177.59.853.853 0 00.562.309.791.791 0 00.639-.149l1.166-.853zm-.467 1.614c-.188.138-.287.305-.295.501a.733.733 0 00.174.542.838.838 0 00.523.305.72.72 0 00.587-.145l1.121-.82-.989-1.203-1.121.82zm-10.406 6.662l1.018-4.346-.242-.467 1.391-.642 2.898 5.583-1.391.642-1.897-3.654-1.006 4.37.261.503-1.391.642-2.898-5.583 1.391-.642 1.866 3.594zm-11.277 6.313l-.346-1.179 1.835-.478-1.425-4.86 1.482-.386 1.424 4.86 1.807-.471.346 1.179-5.123 1.335zm-9.661-.719l2.58-3.747-.046-.527 1.521-.118.55 6.29-1.521.118-.36-4.117-2.578 3.775.05.567-1.521.118-.55-6.29 1.52-.118.355 4.049zm-12.66-.264c-.003.348.095.64.295.877.19.244.542.4 1.057.466.294.038.555.016.782-.065.227-.08.428-.206.602-.376.173-.161.314-.358.423-.592.098-.226.167-.474.206-.744.039-.27.044-.53.014-.782a1.816 1.816 0 00-.239-.677 1.572 1.572 0 00-.503-.505 1.93 1.93 0 00-.804-.268c-.441-.057-.776-.008-1.005.146-.237.153-.43.38-.576.682l-1.503-.193a3.26 3.26 0 01.436-.879c.187-.26.425-.482.714-.665a2.8 2.8 0 01.98-.369 3.906 3.906 0 011.254-.017c.524.067.975.217 1.354.449.368.239.667.53.9.872.222.34.373.717.454 1.131.08.414.09.836.027 1.268a3.79 3.79 0 01-.385 1.203c-.196.387-.45.716-.76.988-.32.271-.691.471-1.113.6-.422.138-.896.173-1.42.106-.524-.067-.96-.197-1.307-.388a2.61 2.61 0 01-.842-.686 2.084 2.084 0 01-.438-.854 2.782 2.782 0 01-.106-.921l1.503.193zm-9.131.76l-1.336-.443.722-1.933-1.494-.496c-.34-.113-.612-.266-.815-.459a1.649 1.649 0 01-.465-.647 1.64 1.64 0 01-.139-.77 2.44 2.44 0 01.163-.83 2.58 2.58 0 01.424-.742c.169-.215.376-.388.62-.518.237-.134.503-.215.798-.243a2.41 2.41 0 01.935.137l2.83.94-2.243 6.004zm-.2-3.484l.693-1.856-1.232-.409c-.331-.11-.608-.105-.83.014-.22.12-.383.317-.486.592-.102.275-.107.524-.014.749.093.224.305.391.637.501l1.231.409zm-13.882-9.684c.351.302.626.639.825 1.013.192.381.306.773.34 1.176a3.26 3.26 0 01-.13 1.212c-.129.4-.33.769-.607 1.107a3.44 3.44 0 01-.973.823 3.81 3.81 0 01-1.21.427 3.744 3.744 0 01-1.293-.012 3.617 3.617 0 01-1.257-.485l-1.968 2.405-1.036-.754 1.967-2.405a3.323 3.323 0 01-.816-1.023 3.078 3.078 0 01-.199-2.381c.115-.398.31-.766.587-1.104.276-.338.607-.613.992-.826a3.61 3.61 0 011.191-.423 3.72 3.72 0 011.293.011c.44.079.859.241 1.257.485l1.959-2.394 1.036.754-1.958 2.394zm-4.601.85a2.619 2.619 0 00-.406.668c-.1.236-.149.476-.148.718-.005.236.042.465.142.687.1.222.258.423.474.603l2.7-3.299a1.583 1.583 0 00-.722-.301c-.253-.035-.5-.02-.741.046-.248.06-.482.165-.7.316a3.066 3.066 0 00-.599.562zm3.86 2.808a2.89 2.89 0 00.414-.679c.1-.237.156-.477.168-.721a1.753 1.753 0 00-.141-.687 1.495 1.495 0 00-.503-.59l-2.7 3.299c.248.157.498.253.75.288.246.029.493.014.741-.046.242-.065.47-.174.688-.325a2.86 2.86 0 00.583-.539zm-9.59-12.179c.329.385.554.785.677 1.202.115.422.14.839.075 1.25a3.287 3.287 0 01-.431 1.177 3.63 3.63 0 01-.9.972 3.82 3.82 0 01-1.188.614c-.44.131-.881.183-1.322.155a3.284 3.284 0 01-1.27-.343 3.348 3.348 0 01-1.111-.871 3.128 3.128 0 01-.666-1.209 2.772 2.772 0 01-.094-1.253c.06-.419.207-.814.442-1.185.222-.372.515-.697.88-.974a3.658 3.658 0 011.208-.612 3.5 3.5 0 011.31-.147c.441.028.87.143 1.29.345a3.51 3.51 0 011.1.879zm-1.083.823a1.745 1.745 0 00-.626-.475 1.972 1.972 0 00-.745-.181 2.184 2.184 0 00-.77.11 2.438 2.438 0 00-1.274.967 1.89 1.89 0 00-.278.687 1.67 1.67 0 00.03.724c.057.24.177.466.359.679.181.213.39.371.626.475.236.103.481.161.736.171.254.01.511-.026.771-.11.254-.091.492-.221.716-.391.223-.17.409-.362.557-.576.142-.222.235-.451.278-.687a1.71 1.71 0 00-.02-.714 1.623 1.623 0 00-.36-.679zm-12.521-8.226l1.142-.576.9 1.585 4.705-2.375.726 1.28-4.704 2.375.886 1.562-1.142.576-2.513-4.427zm3.105-8.939c.16.478.22.935.178 1.369a3.055 3.055 0 01-.397 1.203 3.413 3.413 0 01-.836.953 3.7 3.7 0 01-1.192.594c-.44.132-.882.183-1.325.156a3.676 3.676 0 01-1.279-.323 3.17 3.17 0 01-1.043-.773 3.28 3.28 0 01-.703-1.213 3.147 3.147 0 01-.164-1.373c.039-.443.165-.847.379-1.211.21-.373.494-.692.849-.957a3.484 3.484 0 011.175-.604 3.644 3.644 0 011.343-.146c.443.027.865.136 1.264.327.397.182.75.443 1.062.782.3.333.529.738.69 1.216zm-1.306.389a1.705 1.705 0 00-.402-.668 1.896 1.896 0 00-.62-.435 2.137 2.137 0 00-.752-.17 2.395 2.395 0 00-.81.101c-.27.08-.511.199-.725.356-.214.158-.385.34-.513.547a1.733 1.733 0 00-.163 1.457c.089.265.223.487.402.669.179.181.384.322.615.422.231.1.482.157.753.17.268.004.537-.034.806-.114.27-.08.512-.195.729-.344.214-.157.384-.34.512-.547.129-.207.21-.433.247-.679.036-.245.01-.5-.079-.765zM32.204 81.48l-.176 3.179-1.351-.067.176-3.178 1.35.067zm6.649-11.887l-2.401-1 .059-.125c.109-.233.162-.455.16-.665a1.195 1.195 0 00-.183-.584 1.722 1.722 0 00-.448-.47 2.844 2.844 0 00-.657-.378l-3.075-1.28 2.113-4.512 4.84 2.015.211-.45 2.401 1-.568 1.213-1.32-.55-1.886 4.023 1.322.55-.568 1.213zm-.189-5.724l-3.76-1.566-.919 1.962 1.804.752c.474.197.858.426 1.15.688.285.257.425.575.42.951l1.305-2.787zm3.568-11.653l1.154 4.302.437.303-.933 1.197-5.226-3.626.934-1.196 3.42 2.373-1.177-4.318-.47-.327.933-1.196 5.225 3.626-.933 1.196-3.364-2.334zm3.756-7.806l2.29-1.932c.358-.301.683-.5.978-.595.29-.102.55-.139.782-.11.24.022.443.087.61.194.173.102.315.212.427.33.131.138.22.293.268.465.055.166.073.34.053.522a1.85 1.85 0 01-.17.533c-.085.167-.204.32-.354.459a2.04 2.04 0 01.544-.3 1.6 1.6 0 01.603-.137 1.58 1.58 0 01.605.11c.195.07.377.195.545.372.106.111.206.263.299.456.094.18.136.394.124.64-.01.245-.09.513-.239.803-.154.284-.42.586-.799.905l-2.216 1.87-4.35-4.584zm3.627 1.67l1.148 1.21 1.103-.93c.185-.157.28-.343.282-.557a.76.76 0 00-.22-.576.854.854 0 00-.583-.27.788.788 0 00-.627.193l-1.103.93zm.35-1.642c.179-.15.265-.324.26-.52a.737.737 0 00-.214-.528.842.842 0 00-.543-.268.72.72 0 00-.576.185l-1.06.894 1.074 1.131 1.06-.894zm9.747-7.274l-.694 4.4.278.449-1.342.738-3.312-5.355 1.342-.738 2.168 3.505.68-4.423-.299-.483 1.342-.738 3.311 5.354-1.342.738-2.132-3.447zm10.67-7.04l.434 1.149-1.798.605 1.79 4.734-1.452.488-1.79-4.734-1.772.595-.434-1.149 5.022-1.688zm9.603.036l-2.29 3.909.088.52-1.512.225-1.038-6.218 1.512-.224.68 4.07 2.284-3.936-.094-.56 1.511-.225 1.038 6.218-1.511.224-.668-4.002zm12.611-.656a1.298 1.298 0 00-.361-.853c-.208-.23-.572-.362-1.091-.393a1.68 1.68 0 00-.777.117c-.22.096-.411.235-.573.416-.16.172-.286.378-.377.618a2.86 2.86 0 00-.148.754 3 3 0 00.045.78c.058.249.155.468.29.658.137.19.317.346.542.469.224.122.499.193.824.213.445.026.776-.045.992-.214.226-.168.4-.407.523-.718l1.517.091c-.078.323-.2.624-.368.905a2.518 2.518 0 01-.663.71 2.779 2.779 0 01-.951.434c-.36.096-.777.13-1.25.102-.53-.032-.992-.15-1.387-.356a3.188 3.188 0 01-.966-.808 3.167 3.167 0 01-.54-1.095 3.756 3.756 0 01-.125-1.262c.029-.425.126-.833.292-1.223.167-.399.395-.744.685-1.035a3.086 3.086 0 011.065-.673c.412-.166.882-.233 1.41-.201.53.031.974.13 1.336.298.37.168.668.376.893.626.235.241.403.515.504.82a2.8 2.8 0 01.176.911l-1.517-.091zm9.235-1.396l1.366.355-.578 1.974 1.527.398c.348.09.631.225.847.404.228.173.399.378.512.615.125.231.19.484.196.76a2.603 2.603 0 01-.47 1.606c-.153.224-.346.41-.581.556a1.965 1.965 0 01-.778.294c-.281.04-.596.015-.944-.076l-2.893-.753 1.796-6.133zm.457 3.461l-.555 1.896 1.259.327c.339.089.615.066.827-.068.212-.133.359-.34.441-.621.082-.281.069-.53-.04-.747-.11-.218-.334-.37-.673-.459l-1.259-.328zm14.718 8.791a3.528 3.528 0 01-.899-.953 3.209 3.209 0 01-.427-1.15c-.064-.4-.051-.806.039-1.22a3.32 3.32 0 01.521-1.146 3.44 3.44 0 01.908-.889 3.729 3.729 0 012.465-.587c.444.048.874.18 1.29.396l1.78-2.535 1.09.68-1.78 2.536c.373.277.67.598.89.965.221.367.363.75.427 1.15.064.4.048.803-.05 1.212a3.04 3.04 0 01-.502 1.142c-.25.356-.559.654-.927.893-.355.236-.74.405-1.156.505-.415.1-.845.127-1.289.078a3.638 3.638 0 01-1.29-.396l-1.772 2.524-1.091-.68 1.773-2.525zm4.523-1.167a2.59 2.59 0 00.354-.694 1.81 1.81 0 00.094-.727 1.56 1.56 0 00-.193-.676 1.707 1.707 0 00-.518-.57l-2.443 3.48c.239.15.487.233.741.25.255.018.5-.014.736-.096.243-.077.467-.2.673-.365a3.04 3.04 0 00.556-.602zm-4.059-2.534c-.155.22-.275.455-.363.706a2.109 2.109 0 00-.112.73c.019.242.083.468.192.677.116.215.298.399.546.553l2.443-3.479a1.882 1.882 0 00-.769-.235 2.078 2.078 0 00-.736.097 2.193 2.193 0 00-.661.372 2.81 2.81 0 00-.54.579zm10.303 11.328a3.294 3.294 0 01-.766-1.148 2.946 2.946 0 01-.169-1.242 3.26 3.26 0 01.341-1.204c.199-.38.474-.726.824-1.034a3.8 3.8 0 011.138-.698 3.79 3.79 0 011.307-.25 3.3 3.3 0 011.293.25c.426.166.818.428 1.175.788.357.36.609.746.756 1.158.16.413.223.827.189 1.242a2.978 2.978 0 01-.351 1.214 3.422 3.422 0 01-.804 1.034c-.35.309-.737.541-1.159.697a3.493 3.493 0 01-1.297.241 3.432 3.432 0 01-1.312-.25 3.514 3.514 0 01-1.165-.798zm1.018-.898c.198.199.418.342.661.428.25.093.502.136.757.128.255-.008.508-.064.761-.166a2.427 2.427 0 001.196-1.056c.126-.23.201-.466.226-.705a1.672 1.672 0 00-.085-.72 1.62 1.62 0 00-.409-.65 1.758 1.758 0 00-.661-.429 2.025 2.025 0 00-.747-.117 2.194 2.194 0 00-.761.165 2.656 2.656 0 00-.684.441c-.21.186-.381.39-.513.615-.125.23-.2.466-.225.705a1.631 1.631 0 00.484 1.361zm13.18 7.334l-1.097.656-1.017-1.515-4.523 2.7-.821-1.223 4.522-2.7-1.002-1.492 1.098-.656 2.84 4.23zm-2.416 9.083a3.281 3.281 0 01-.28-1.35c.018-.439.12-.847.306-1.224a3.39 3.39 0 01.764-1.007 3.696 3.696 0 011.148-.676c.43-.161.867-.244 1.313-.248a3.71 3.71 0 011.302.232c.41.153.777.385 1.102.696.333.307.597.692.793 1.157.196.464.285.916.267 1.354a2.835 2.835 0 01-.288 1.232 3.06 3.06 0 01-.777 1.012c-.323.294-.7.522-1.129.683a3.664 3.664 0 01-1.332.24 3.432 3.432 0 01-1.289-.236 3.341 3.341 0 01-1.12-.703 3.434 3.434 0 01-.78-1.162zm1.277-.48c.108.258.259.47.451.638.197.176.414.305.652.389.239.083.494.122.766.116.272-.006.539-.058.802-.157a2.32 2.32 0 00.698-.406c.202-.172.359-.365.471-.58a1.714 1.714 0 00.055-1.461 1.725 1.725 0 00-.452-.637 1.972 1.972 0 00-.647-.377 2.16 2.16 0 00-.766-.116c-.268.014-.534.07-.797.17-.263.098-.497.23-.703.393a1.933 1.933 0 00-.471.58 1.728 1.728 0 00-.195.693c-.018.247.027.499.136.756zm7.141 20.639l-.064-3.176 1.355-.024.064 3.175-1.355.025z" fill="#fff"/></svg>